<?xml version="1.0" encoding="UTF-8"?>
<svg xmlns="http://www.w3.org/2000/svg" width="1200" height="800" viewBox="0 0 1200 800">
  <rect x="0" y="0" width="1200" height="800" fill="white"/>
  <text x="60" y="40" font-family="monospace" font-size="16" fill="#111">Reference vs replay | ref_close=0.60m replay_close=5.07m mean=0.18m p95=0.28m max=0.50m cover=93.9% | 2025-10-29-16-05-00.bag /liorl/mapping/path</text>
  <rect x="60" y="60" width="1080" height="680" fill="none" stroke="#aaa" stroke-width="1"/>

  <polyline points="112.55,460.23 142.96,459.01 172.75,458.87 203.85,459.77 234.94,457.22 266.22,458.09 297.86,458.54 327.89,459.78 357.81,464.29 366.89,476.63 369.46,504.01 366.90,525.35 372.77,544.87 383.38,573.30 391.52,604.69 400.19,634.46 409.31,663.31 418.23,680.70 429.43,685.45 469.46,686.23 499.50,690.93 535.02,687.40 565.80,689.22 595.25,689.65 625.14,692.36 657.52,693.64 688.51,695.07 718.88,696.70 748.77,701.89 778.72,703.24 810.04,704.47 840.02,706.17 871.41,706.16 903.21,707.79 933.19,713.15 965.36,715.96 995.79,719.06 1028.17,720.48 1059.03,722.90 1090.94,725.25 1114.81,722.99 1125.25,712.19 1122.06,698.98 1118.02,669.28 1109.80,650.81 1098.51,630.75 1089.42,609.69 1096.28,598.99 1099.98,566.53 1095.63,553.95 1087.69,525.91 1067.97,510.38 1046.88,504.85 1014.86,498.11 984.97,493.21 954.98,490.70 922.72,487.10 890.94,485.44 858.06,485.15 826.42,482.90 794.74,481.75 760.81,480.55 729.60,479.70 697.77,475.87 668.30,475.30 637.93,476.31 604.90,475.24 574.19,474.56 540.78,472.32 510.50,470.29 477.35,468.26 443.65,465.97 411.07,467.41 389.46,482.91 380.68,493.11 380.98,507.05 381.73,544.73 388.12,562.17 392.82,575.65 395.96,605.75 403.53,636.57 405.47,667.24 399.34,684.74 386.25,691.18 371.51,691.47 331.68,689.32 300.69,690.41 271.12,688.69 241.97,683.22 211.37,677.69 178.48,673.34 149.45,667.71 131.26,660.07 118.66,642.68 113.05,625.23 109.26,581.09 102.30,556.49 92.66,528.26 82.10,498.75 74.75,468.30 83.89,459.03 95.64,465.64" fill="none" stroke="#d62728" stroke-width="2" opacity="0.95"/>
  <polyline points="112.55,460.23 112.55,460.23 112.55,460.23 112.55,460.23 113.99,460.19 116.67,460.13 119.31,460.09 121.96,460.06 124.61,460.03 127.26,460.00 129.91,459.93 132.55,459.83 135.20,459.78 137.85,459.76 140.50,459.74 143.14,459.71 145.79,459.69 148.44,459.66 151.09,459.63 153.73,459.59 156.38,459.54 159.03,459.48 161.67,459.42 164.32,459.29 166.97,459.25 169.62,459.21 172.27,459.19 174.91,459.17 177.56,459.15 180.21,459.15 182.86,459.15 185.51,459.17 188.16,459.21 190.81,459.27 193.45,459.37 196.10,459.49 198.75,459.57 201.39,459.59 204.04,459.57 206.69,459.52 209.34,459.43 211.98,459.34 214.63,459.21 217.27,459.05 219.90,458.85 222.53,458.60 225.16,458.32 227.80,458.08 230.44,457.92 233.06,457.80 235.73,457.69 238.38,457.60 241.02,457.55 243.67,457.51 246.32,457.48 248.97,457.48 251.62,457.49 254.27,457.52 256.92,457.56 259.56,457.62 262.21,457.68 264.86,457.74 267.50,457.79 270.15,457.85 272.80,457.90 275.44,457.96 278.09,458.01 280.74,458.07 283.39,458.13 286.01,458.18 288.68,458.24 291.33,458.33 293.97,458.45 296.61,458.59 299.24,458.76 301.88,458.95 304.51,459.17 307.09,459.41 309.78,459.67 312.38,459.95 315.03,460.25 317.65,460.57 320.28,460.88 322.90,461.21 325.48,461.63 328.09,462.14 330.66,462.73 333.19,463.46 335.68,464.34 338.09,465.33 340.48,466.49 342.79,467.75 345.04,469.11 347.22,470.57 349.29,472.14 351.31,473.86 353.21,475.67 354.99,477.59 356.66,479.62 358.20,481.72 359.63,483.95 360.92,486.24 362.09,488.59 363.18,490.98 364.18,493.42 365.08,495.89 365.87,498.40 366.58,500.94 367.23,503.49 367.82,506.06 368.37,508.64 368.88,511.23 369.36,513.82 369.80,516.43 370.23,519.03 370.66,521.63 371.08,524.24 371.49,526.80 371.91,529.45 372.34,532.03 372.76,534.67 373.13,537.28 373.54,539.84 373.99,542.49 374.48,545.05 375.04,547.66 375.65,550.22 376.32,552.77 377.04,555.31 377.80,557.80 378.61,560.34 379.43,562.84 380.23,565.35 380.93,567.88 381.58,570.41 382.24,572.99 382.92,575.54 383.61,578.08 384.32,580.62 385.04,583.13 385.77,585.68 386.51,588.21 387.26,590.74 388.00,593.27 388.72,595.80 389.39,598.35 390.06,600.90 390.73,603.45 391.40,606.00 392.08,608.54 392.75,611.09 393.43,613.64 394.10,616.19 394.78,618.73 395.51,621.26 396.26,623.79 396.99,626.32 397.71,628.85 398.44,631.38 399.19,633.91 399.96,636.43 400.76,638.94 401.56,641.45 402.37,643.95 403.18,646.46 403.99,648.96 404.80,651.47 405.66,653.96 406.65,656.40 407.77,658.77 409.02,661.08 410.39,663.32 411.83,665.52 413.31,667.69 414.79,669.86 415.49,670.84 415.77,671.17 417.51,673.14 419.36,675.00 421.32,676.75 423.38,678.37 425.53,679.87 427.78,681.24 430.10,682.47 432.49,683.56 434.94,684.51 437.45,685.32 440.00,685.98 442.59,686.51 445.20,686.94 447.84,687.23 450.48,687.37 453.13,687.44 455.77,687.52 458.41,687.61 461.06,687.70 463.71,687.77 466.35,687.85 468.99,687.96 471.64,688.09 474.28,688.23 476.92,688.40 479.55,688.59 482.19,688.83 484.82,689.09 487.45,689.35 490.08,689.60 492.72,689.83 495.36,690.05 498.01,690.19 500.66,690.26 503.31,690.26 505.95,690.21 508.60,690.11 511.24,689.98 513.88,689.80 516.52,689.58 519.15,689.31 521.77,689.02 524.41,688.77 527.05,688.58 529.70,688.44 532.35,688.39 535.00,688.36 537.64,688.35 540.29,688.34 542.94,688.34 545.59,688.35 548.24,688.37 550.89,688.41 553.53,688.46 556.18,688.52 558.83,688.58 561.47,688.64 564.12,688.71 566.76,688.77 569.41,688.84 572.06,688.91 574.70,688.98 577.35,689.05 580.00,689.11 582.64,689.17 585.29,689.24 587.93,689.32 590.58,689.40 593.22,689.52 595.86,689.66 598.50,689.82 601.14,689.99 603.78,690.17 606.41,690.37 609.05,690.58 611.68,690.81 614.32,691.08 616.96,691.29 619.60,691.45 622.23,691.62 624.87,691.78 627.51,691.94 630.16,692.08 632.80,692.22 635.44,692.35 638.08,692.48 640.72,692.61 643.37,692.75 646.01,692.88 648.65,693.03 651.29,693.16 653.93,693.31 656.57,693.46 659.22,693.60 661.86,693.74 664.50,693.87 667.14,694.00 669.79,694.12 672.43,694.24 675.08,694.35 677.72,694.47 680.36,694.58 683.01,694.69 685.65,694.80 688.30,694.92 690.94,695.04 693.58,695.16 696.23,695.29 698.87,695.40 701.51,695.51 704.16,695.63 706.80,695.75 709.44,695.88 712.08,696.03 714.72,696.24 717.35,696.50 719.97,696.80 722.59,697.13 725.21,697.49 727.82,697.88 730.43,698.31 733.02,698.77 735.62,699.27 738.20,699.78 740.82,700.23 743.44,700.57 746.07,700.84 748.70,701.07 751.33,701.28 753.97,701.48 756.60,701.66 759.24,701.84 761.88,702.00 764.52,702.17 767.16,702.33 769.80,702.50 772.45,702.65 775.09,702.76 777.73,702.87 780.38,702.99 783.02,703.11 785.66,703.22 788.31,703.33 791.26,703.46 794.24,703.59 796.90,703.70 799.54,703.83 802.19,703.95 804.83,704.05 807.48,704.15 810.12,704.26 812.77,704.37 815.41,704.49 818.05,704.61 820.70,704.74 823.34,704.88 825.98,705.03 828.62,705.19 831.27,705.33 833.91,705.45 836.56,705.55 839.21,705.64 841.85,705.73 844.50,705.79 847.13,705.86 849.79,705.91 852.44,705.96 855.09,706.01 857.74,706.04 860.39,706.08 863.03,706.10 865.68,706.14 868.33,706.19 870.98,706.24 873.62,706.30 876.27,706.37 878.91,706.44 881.55,706.53 884.20,706.61 886.84,706.69 889.49,706.79 892.13,706.89 894.78,707.00 897.42,707.19 900.05,707.39 902.68,707.66 905.30,707.97 907.92,708.31 910.54,708.69 913.14,709.11 915.75,709.55 918.34,710.02 920.93,710.53 923.52,711.01 926.13,711.44 928.74,711.82 931.36,712.17 933.98,712.51 936.60,712.83 939.21,713.13 941.85,713.42 944.48,713.70 947.11,713.98 949.74,714.25 952.37,714.52 955.00,714.78 957.63,715.02 960.26,715.23 962.90,715.46 965.53,715.69 968.16,715.93 970.80,716.18 973.43,716.43 976.06,716.69 978.69,716.95 981.32,717.22 983.94,717.49 986.92,717.80 989.76,718.05 992.50,718.25 995.14,718.44 997.78,718.61 1000.42,718.78 1003.06,718.93 1005.70,719.08 1008.34,719.23 1010.98,719.38 1013.62,719.52 1016.26,719.67 1018.91,719.81 1021.55,719.95 1024.19,720.13 1026.82,720.33 1029.46,720.52 1032.10,720.72 1034.73,720.91 1037.37,721.10 1040.01,721.28 1042.65,721.43 1045.29,721.59 1047.93,721.75 1050.58,721.90 1053.22,722.04 1055.86,722.18 1058.50,722.35 1061.14,722.51 1063.78,722.67 1066.43,722.83 1069.08,722.96 1071.73,723.02 1074.37,723.03 1077.02,722.99 1079.67,722.89 1082.30,722.65 1084.92,722.26 1087.51,721.73 1090.06,721.07 1092.56,720.25 1095.00,719.27 1097.38,718.15 1099.68,716.88 1101.90,715.47 1104.02,713.93 1106.05,712.26 1107.97,710.48 1109.78,708.57 1111.47,706.57 1113.04,704.46 1114.48,702.27 1115.78,699.99 1116.95,697.63 1117.99,695.22 1118.91,692.75 1119.68,690.23 1120.31,687.67 1120.83,685.03 1121.25,682.20 1121.49,679.35 1121.56,676.51 1121.46,673.86 1121.22,671.23 1120.82,668.61 1120.29,666.02 1119.62,663.48 1118.79,660.98 1117.81,658.54 1116.69,656.16 1115.46,653.83 1114.15,651.56 1112.75,649.34 1111.27,647.17 1109.71,645.05 1108.11,642.97 1106.48,640.91 1104.87,638.89 1103.28,636.82 1101.82,634.65 1100.47,632.39 1099.26,630.05 1098.19,627.65 1097.24,625.19 1096.41,622.70 1095.68,620.17 1095.04,617.61 1094.50,615.03 1094.05,612.43 1093.67,609.81 1093.35,607.19 1093.06,604.56 1092.89,601.91 1092.86,599.27 1092.96,596.62 1093.15,593.98 1093.38,591.35 1093.64,588.73 1093.95,586.10 1094.31,583.50 1094.73,580.88 1095.14,578.25 1095.42,575.62 1095.57,572.97 1095.58,570.32 1095.43,567.68 1095.14,565.05 1094.77,562.43 1094.34,559.83 1093.78,557.25 1093.09,554.71 1092.28,552.20 1091.34,549.74 1090.27,547.34 1089.09,545.01 1087.81,542.70 1086.47,540.44 1085.08,538.21 1083.58,536.06 1082.00,533.96 1080.38,531.89 1078.74,529.85 1077.02,527.86 1075.26,525.91 1073.47,524.00 1071.63,522.12 1069.74,520.30 1067.75,518.60 1065.65,517.01 1063.48,515.55 1061.23,514.19 1058.91,512.95 1056.56,511.78 1054.17,510.68 1051.75,509.68 1049.27,508.75 1046.77,507.93 1044.25,507.18 1041.72,506.44 1039.19,505.70 1036.67,504.94 1034.15,504.17 1031.64,503.38 1029.13,502.57 1026.62,501.76 1024.10,501.01 1021.55,500.36 1018.97,499.81 1016.37,499.35 1013.77,498.92 1011.17,498.46 1008.58,498.00 1005.98,497.52 1003.39,497.03 1000.80,496.52 998.21,496.01 995.63,495.49 993.03,495.01 990.42,494.60 987.79,494.26 985.16,494.00 982.53,493.79 979.90,493.59 977.26,493.37 974.63,493.13 972.00,492.88 969.37,492.61 966.74,492.33 964.12,492.02 961.50,491.75 958.86,491.50 956.22,491.28 953.59,491.06 950.95,490.84 948.32,490.62 945.69,490.37 943.06,490.09 940.43,489.80 937.81,489.48 935.19,489.13 932.57,488.76 929.95,488.45 927.31,488.20 924.67,487.99 922.04,487.81 919.40,487.65 916.76,487.48 914.12,487.31 911.48,487.14 908.84,486.97 906.21,486.79 903.57,486.59 900.93,486.39 898.28,486.23 895.64,486.10 892.99,485.99 890.35,485.89 887.70,485.81 885.05,485.75 882.41,485.68 879.76,485.62 877.11,485.57 874.46,485.51 871.82,485.46 869.18,485.41 866.52,485.35 863.87,485.32 861.23,485.29 858.58,485.25 855.93,485.20 853.28,485.14 850.64,485.05 848.00,484.95 845.36,484.82 842.72,484.65 840.08,484.46 837.45,484.23 834.81,484.03 832.16,483.86 829.52,483.71 826.88,483.59 824.24,483.48 821.60,483.37 818.95,483.25 816.32,483.13 813.67,483.00 811.02,482.87 808.38,482.72 805.74,482.56 803.09,482.43 800.44,482.31 797.80,482.22 795.15,482.14 792.50,482.07 789.86,482.02 787.22,481.95 784.57,481.87 781.93,481.78 779.29,481.68 776.65,481.57 774.00,481.45 771.35,481.34 768.71,481.22 766.06,481.12 763.41,481.04 760.77,480.95 758.13,480.87 755.48,480.78 752.83,480.69 750.20,480.60 747.54,480.51 744.90,480.42 742.25,480.34 739.61,480.25 736.97,480.18 734.31,480.11 731.67,480.04 729.02,479.95 726.38,479.85 723.74,479.71 721.10,479.53 718.46,479.30 715.84,479.01 713.22,478.66 710.62,478.26 708.01,477.81 705.39,477.42 702.77,477.10 700.13,476.84 697.51,476.62 694.86,476.43 692.22,476.26 689.57,476.12 686.93,476.00 684.28,475.89 681.64,475.80 678.99,475.70 676.34,475.64 673.70,475.60 671.06,475.57 668.40,475.54 665.75,475.51 663.10,475.48 660.45,475.46 657.82,475.47 655.16,475.49 652.51,475.53 649.86,475.58 647.21,475.62 644.57,475.67 641.92,475.71 639.27,475.75 636.62,475.79 633.98,475.85 631.34,475.89 628.68,475.91 626.03,475.93 623.38,475.93 620.73,475.92 618.08,475.90 615.43,475.88 612.79,475.85 610.14,475.83 607.49,475.80 604.85,475.77 602.19,475.74 599.55,475.70 596.90,475.65 594.25,475.60 591.62,475.53 588.96,475.46 586.32,475.37 583.68,475.26 581.03,475.14 578.39,475.05 575.74,474.95 573.10,474.85 570.46,474.74 567.81,474.64 565.18,474.51 562.53,474.37 559.89,474.20 557.25,474.02 554.61,473.82 551.99,473.59 549.34,473.39 546.70,473.22 544.06,473.06 541.42,472.90 538.78,472.73 536.14,472.58 533.50,472.42 530.86,472.25 528.22,472.07 525.60,471.87 522.95,471.66 520.31,471.44 517.67,471.26 515.03,471.10 512.41,470.96 509.75,470.81 507.11,470.67 504.47,470.53 501.83,470.38 499.19,470.21 496.55,470.03 493.91,469.84 491.28,469.65 488.64,469.44 486.01,469.23 483.35,469.08 480.71,468.96 478.07,468.85 475.43,468.75 472.79,468.62 470.15,468.47 467.51,468.30 464.87,468.10 462.24,467.89 459.60,467.65 456.97,467.40 454.34,467.11 451.69,466.87 449.05,466.77 446.41,466.83 443.76,467.04 441.14,467.39 438.54,467.84 435.96,468.38 433.40,469.03 430.89,469.82 428.43,470.75 426.02,471.80 423.68,473.00 421.43,474.32 419.19,475.73 417.02,477.20 414.87,478.71 412.73,480.24 410.61,481.77 408.48,483.32 406.37,484.88 404.29,486.48 402.31,488.20 400.44,490.04 398.68,491.99 397.04,494.04 395.53,496.19 394.15,498.42 392.91,500.72 391.80,503.12 390.80,505.56 389.91,508.03 389.07,510.53 388.27,513.02 387.49,515.55 386.75,518.08 386.04,520.62 385.27,523.14 384.37,525.61 383.32,528.02 382.14,530.37 380.86,532.66 379.62,534.98 378.53,537.35 377.56,539.82 376.75,542.32 376.08,544.87 375.54,547.46 375.11,550.06 374.82,552.71 374.68,555.35 374.69,558.00 374.84,560.64 375.14,563.27 375.58,565.88 376.16,568.45 376.88,570.99 377.76,573.47 378.76,575.89 379.87,578.28 381.06,580.63 382.31,582.94 383.61,585.22 384.94,587.49 386.31,589.73 387.70,591.96 389.12,594.17 390.51,596.39 391.78,598.68 392.92,601.06 393.92,603.50 394.77,605.99 395.47,608.53 396.06,611.09 396.53,613.71 396.84,616.33 397.08,618.97 397.29,621.60 397.50,624.24 397.74,626.87 398.00,629.51 398.15,632.15 398.16,634.80 398.09,637.43 397.99,640.09 397.83,642.74 397.63,645.37 397.34,648.00 396.94,650.60 396.40,653.20 395.78,655.77 395.10,658.31 394.32,660.83 393.40,663.29 392.36,665.71 391.19,668.06 389.90,670.35 388.51,672.58 387.02,674.72 385.39,676.80 383.68,678.72 381.91,680.49 380.01,682.20 378.01,683.82 375.87,685.36 373.65,686.77 371.35,688.04 368.98,689.17 366.54,690.16 364.05,691.01 361.51,691.71 358.93,692.29 356.32,692.74 353.70,693.06 351.04,693.23 348.39,693.27 345.74,693.27 343.10,693.25 340.45,693.21 337.80,693.15 335.16,693.05 332.51,692.92 329.88,692.77 327.24,692.60 324.60,692.42 321.97,692.23 319.33,692.05 316.68,691.89 314.06,691.75 311.40,691.61 308.76,691.45 306.12,691.31 303.48,691.16 300.84,690.99 298.20,690.83 295.56,690.66 292.92,690.52 290.28,690.38 287.65,690.22 285.00,690.04 282.36,689.83 279.73,689.61 277.09,689.39 274.47,689.14 271.83,688.86 269.21,688.53 266.60,688.17 263.99,687.77 261.38,687.34 258.78,686.88 256.19,686.40 253.60,685.89 251.01,685.41 248.42,684.97 245.80,684.54 243.19,684.11 240.59,683.68 237.99,683.22 235.41,682.76 232.80,682.27 230.21,681.78 227.62,681.26 225.04,680.74 222.45,680.20 219.87,679.67 217.27,679.19 214.66,678.79 212.03,678.46 209.42,678.20 206.78,677.94 204.15,677.68 201.52,677.39 198.90,677.05 196.31,676.64 193.70,676.15 191.12,675.60 188.55,675.03 185.95,674.54 183.34,674.12 180.72,673.79 178.11,673.45 175.49,673.09 172.88,672.69 170.30,672.21 167.72,671.61 165.18,670.89 162.68,670.06 160.23,669.11 157.82,668.05 155.45,666.89 153.12,665.67 150.82,664.40 148.54,663.10 146.29,661.77 144.04,660.38 141.80,659.01 139.55,657.67 137.34,656.24 135.24,654.69 133.20,653.02 131.27,651.24 129.44,649.36 127.71,647.39 126.09,645.32 124.60,643.16 123.25,640.91 122.03,638.58 120.94,636.19 119.98,633.75 119.16,631.24 118.47,628.69 117.91,626.11 117.46,623.50 117.14,620.89 116.94,618.23 116.88,615.58 116.97,612.94 117.21,610.30 117.49,608.23 117.51,608.26 117.53,608.28 117.57,608.30 117.62,608.36 117.68,608.40 117.74,608.44 117.83,608.50 117.91,608.56 118.03,608.60 118.15,608.68 118.29,608.74 118.46,608.79 118.67,608.87 118.69,608.89 118.69,608.89 118.69,608.89 118.69,608.89 118.69,608.89 118.70,608.89 118.70,608.89 118.70,608.89 118.70,608.89 118.70,608.89 118.70,608.89 118.70,608.89 118.70,608.89 118.70,608.89 118.70,608.89 118.70,608.89 118.71,608.89 118.71,608.89 118.71,608.89 118.71,608.89 118.71,608.89 118.71,608.89 118.71,608.89 118.71,608.89 118.71,608.89 118.71,608.89 118.71,608.90 118.69,608.92 118.68,608.95 118.85,609.23 119.15,609.64 119.16,609.70 119.14,609.74 119.13,609.77 119.14,609.79 119.19,609.80 119.23,609.81 119.27,609.82 119.32,609.82 119.35,609.83 119.39,609.85 119.42,609.87 119.44,609.89 119.47,609.92 119.49,609.93 119.51,609.93 119.53,609.92 119.54,609.89 119.55,609.86 119.56,609.83 119.58,609.79 119.60,609.77 119.62,609.74 119.65,609.72 119.66,609.69 119.65,609.67 119.64,609.66 119.61,609.65 119.57,609.64 119.54,609.62 119.51,609.61 119.48,609.58 119.46,609.56 119.43,609.54 119.52,609.62 119.51,609.63 119.48,609.64 119.46,609.65 119.45,609.68 119.43,609.70 119.41,609.74 119.40,609.78 119.38,609.81 119.35,609.83 119.32,609.86 119.29,609.89 119.27,609.92 119.26,609.94 119.26,609.97 119.26,609.99 119.27,610.01 119.29,610.03 119.32,610.05 119.35,610.07 119.39,610.08 119.42,610.10 119.45,610.12 119.48,610.15 119.51,610.18 119.54,610.20 119.54,610.21 119.55,610.21 119.55,610.21 119.55,610.21 119.55,610.21 119.55,610.21 119.55,610.21 119.55,610.21 119.55,610.21 119.55,610.21 119.55,610.21 119.55,610.21 119.55,610.21 119.56,610.21 119.56,610.21 119.56,610.21 119.56,610.21 119.56,610.21 119.56,610.21 119.56,610.21 119.56,610.21 119.56,610.21 119.56,610.21 119.56,610.21 119.56,610.21 119.56,610.21 119.57,610.21 119.59,610.22 119.61,610.21 119.62,610.19 119.64,610.16 119.65,610.12 119.66,610.08 119.68,610.06 119.70,610.03 119.73,610.00 119.74,609.98 119.74,609.96 119.73,609.94 119.71,609.93 119.67,609.92 119.64,609.91 119.60,609.89 119.58,609.87 119.55,609.85 119.53,609.82 119.50,609.81 119.48,609.82 119.47,609.84 119.46,609.86 119.44,609.90 119.43,609.93 119.42,609.97 119.39,609.99 119.37,610.02 119.35,610.04 119.34,610.06 119.35,610.08 119.37,610.10 119.40,610.11 119.44,610.12 119.47,610.13 119.50,610.15 119.53,610.17 119.55,610.20 119.58,610.22 119.61,610.23 119.63,610.23 119.66,610.23 119.68,610.22 119.70,610.21 119.72,610.19 119.74,610.16 119.76,610.13 119.78,610.09 119.80,610.06 119.82,610.03 119.85,610.00 119.88,609.97 119.91,609.95 119.92,609.92 119.93,609.89 119.93,609.87 119.93,609.84 119.92,609.82 119.90,609.80 119.88,609.78 119.85,609.76 119.82,609.74 119.78,609.73 119.78,609.72 119.78,609.72 119.78,609.72 119.78,609.72 119.78,609.72 119.78,609.72 119.78,609.72 119.78,609.72 119.78,609.72 119.78,609.72 119.78,609.72 119.78,609.72 119.78,609.71 119.78,609.71 119.78,609.71 119.78,609.71 119.78,609.71 119.78,609.71 119.78,609.71 119.79,609.71 119.79,609.71 119.79,609.71 119.79,609.71 119.79,609.71 119.79,609.71 119.79,609.70 119.79,609.70 119.79,609.70 119.79,609.70 119.79,609.70 119.79,609.70 119.79,609.70 119.79,609.70 119.79,609.70 119.79,609.70 119.79,609.70 119.79,609.70 119.79,609.70 119.79,609.70 119.79,609.69 119.79,609.69 119.79,609.69 119.79,609.69 119.79,609.69 119.79,609.69 119.79,609.69 119.79,609.69 119.79,609.69 119.79,609.69 119.79,609.69 119.79,609.69 119.79,609.69 119.78,609.67 119.75,609.65 119.73,609.62 119.70,609.61 119.71,609.63 119.69,609.64 119.68,609.66 119.67,609.69 119.65,609.73 119.64,609.76 119.62,609.79 119.60,609.81 119.57,609.84 119.56,609.86 119.56,609.88 119.57,609.90 119.60,609.91 119.63,609.92 119.67,609.93 119.70,609.95 119.72,609.97 119.75,609.99 119.78,610.02 119.80,610.03 119.82,610.02 119.83,610.00 119.84,609.97 119.85,609.94 119.87,609.90 119.88,609.87 119.91,609.85 119.93,609.82 119.95,609.80 119.96,609.78 119.95,609.76 119.92,609.75 119.89,609.73 119.86,609.72 119.82,609.71 119.79,609.69 119.77,609.66 119.74,609.64 119.71,609.61 119.68,609.59 119.67,609.60 119.69,609.63 119.66,609.64 119.65,609.65 119.63,609.68 119.61,609.71 119.60,609.75 119.58,609.78 119.56,609.81 119.53,609.84 119.51,609.87 119.48,609.89 119.47,609.92 119.46,609.94 119.46,609.97 119.48,609.99 119.50,610.01 119.52,610.02 119.56,610.04 119.57,610.04 119.57,610.04 119.57,610.04 119.57,610.04 119.57,610.05 119.57,610.05 119.57,610.05 119.57,610.05 119.57,610.05 119.57,610.05 119.57,610.05 119.57,610.05 119.57,610.05 119.57,610.05 119.57,610.05 119.56,610.05 119.56,610.05 119.56,610.05 119.56,610.05 119.56,610.06 119.56,610.06 119.56,610.06 119.56,610.06 119.56,610.06 119.56,610.06 119.56,610.06 119.57,610.06 119.60,610.08 119.63,610.10 119.65,610.12 119.68,610.15 119.70,610.15 119.72,610.15 119.73,610.13 119.74,610.10 119.76,610.07 119.77,610.04 119.79,610.00 119.81,609.98 119.83,609.96 119.85,609.93 119.86,609.91 119.85,609.89 119.83,609.88 119.80,609.87 119.76,609.85 119.73,609.84 119.70,609.82 119.68,609.80 119.65,609.77 119.63,609.76 119.61,609.76 119.59,609.77 119.58,609.80 119.57,609.83 119.55,609.87 119.54,609.90 119.52,609.92 119.49,609.95 119.47,609.97 119.46,610.00 119.47,610.02 119.48,610.03 119.51,610.04 119.55,610.05 119.58,610.07 119.62,610.09 119.65,610.11 119.67,610.14 119.70,610.16 119.73,610.19 119.76,610.21 119.78,610.22 119.81,610.22 119.83,610.21 119.85,610.20 119.87,610.18 119.89,610.15 119.90,610.12 119.92,610.09 119.94,610.05 119.96,610.03 119.99,610.00 120.02,609.97 120.04,609.94 120.06,609.91 120.06,609.89 120.06,609.86 120.05,609.84 120.04,609.82 120.04,609.82 120.04,609.82 120.04,609.82 120.04,609.82 120.04,609.82 120.04,609.83 120.04,609.83 120.04,609.83 120.04,609.83 120.04,609.83 120.04,609.83 120.04,609.83 120.04,609.83 120.04,609.83 120.04,609.83 120.04,609.83 120.04,609.84 120.04,609.84 120.04,609.84 120.04,609.84 120.04,609.84 120.04,609.84 120.04,609.84 120.04,609.84 120.04,609.84 120.04,609.84 120.05,609.84 120.05,609.85 120.05,609.85 120.05,609.85 120.05,609.85 120.05,609.85 120.05,609.85 120.05,609.85 120.05,609.85 120.05,609.85 120.05,609.85 120.05,609.85 120.05,609.86 120.05,609.86 120.05,609.86 120.05,609.86 120.05,609.86 120.05,609.86 120.05,609.86 120.05,609.86 120.05,609.86 120.05,609.86 120.05,609.86 120.05,609.87 120.05,609.87 120.05,609.87 120.05,609.87 120.03,609.86 119.99,609.85 119.96,609.84 119.93,609.82 119.91,609.79 119.88,609.77 119.86,609.75 119.84,609.75 119.82,609.77 119.81,609.79 119.80,609.82 119.79,609.86 119.77,609.89 119.75,609.92 119.73,609.94 119.70,609.97 119.69,609.99 119.70,610.01 119.71,610.03 119.74,610.04 119.78,610.05 119.81,610.06 119.84,610.08 119.87,610.10 119.89,610.13 119.92,610.15 119.94,610.15 119.96,610.14 119.97,610.12 119.98,610.09 120.00,610.06 120.01,610.03 120.03,610.00 120.05,609.97 120.08,609.95 120.09,609.92 120.09,609.90 120.08,609.88 120.06,609.87 120.04,609.85 120.02,609.83 119.99,609.81 119.95,609.79 119.92,609.77 119.89,609.75 119.86,609.72 119.83,609.69 119.80,609.66 119.77,609.65 119.75,609.64 119.72,609.63 119.70,609.63 119.68,609.64 119.66,609.66 119.64,609.68 119.62,609.71 119.60,609.74 119.58,609.78 119.56,609.81 119.54,609.84 119.51,609.87 119.48,609.90 119.45,609.92 119.44,609.94 119.44,609.94 119.44,609.94 119.44,609.94 119.44,609.94 119.44,609.94 119.44,609.94 119.44,609.95 119.44,609.95 119.44,609.95 119.44,609.95 119.45,609.95 119.45,609.95 119.45,609.95 119.45,609.95 119.45,609.95 119.45,609.95 119.45,609.95 119.45,609.95 119.45,609.95 119.45,609.96 119.45,609.96 119.45,609.96 119.45,609.96 119.45,609.96 119.45,609.96 119.45,609.96 119.44,609.98 119.45,610.00 119.47,610.01 119.50,610.03 119.54,610.04 119.57,610.05 119.60,610.07 119.63,610.09 119.65,610.12 119.68,610.13 119.70,610.13 119.71,610.12 119.73,610.10 119.74,610.06 119.75,610.03 119.76,609.99 119.78,609.97 119.81,609.94 119.83,609.92 119.84,609.89 119.84,609.87 119.82,609.86 119.79,609.85 119.76,609.83 119.73,609.82 119.69,609.81 119.67,609.78 119.64,609.76 119.62,609.74 119.60,609.73 119.58,609.74 119.57,609.76 119.55,609.79 119.54,609.83 119.53,609.86 119.51,609.89 119.49,609.91 119.46,609.94 119.44,609.97 119.43,609.99 119.43,610.02 119.43,610.04 119.44,610.07 119.45,610.09 119.47,610.11 119.50,610.13 119.53,610.15 119.56,610.17 119.60,610.19 119.62,610.21 119.65,610.24 119.68,610.27 119.71,610.30 119.74,610.31 119.76,610.33 119.79,610.33 119.82,610.33 119.84,610.32 119.86,610.31 119.88,610.29 119.90,610.26 119.92,610.23 119.94,610.20 119.94,610.19 119.94,610.19 119.94,610.19 119.94,610.19 119.94,610.19 119.94,610.19 119.94,610.19 119.93,610.19 119.93,610.19 119.93,610.19 119.93,610.19 119.93,610.19 119.93,610.19 119.93,610.19 119.93,610.19 119.93,610.19 119.93,610.19 119.93,610.19 119.92,610.19 119.92,610.19 119.92,610.19 119.92,610.19 119.92,610.19 119.92,610.19 119.92,610.19 119.92,610.19 119.92,610.19 119.92,610.19 119.92,610.19 119.91,610.19 119.91,610.19 119.91,610.19 119.91,610.19 119.91,610.19 119.91,610.19 119.91,610.19 119.91,610.19 119.91,610.19 119.91,610.19 119.91,610.19 119.90,610.19 119.90,610.19 119.90,610.19 119.90,610.19 119.90,610.20 119.90,610.20 119.90,610.20 119.90,610.20 119.90,610.20 119.90,610.20 119.90,610.20 119.89,610.20 119.89,610.20 119.91,610.17 119.93,610.14 119.96,610.12 119.98,610.09 119.98,610.07 119.97,610.05 119.95,610.04 119.91,610.03 119.88,610.02 119.85,610.00 119.82,609.98 119.80,609.96 119.77,609.93 119.75,609.92 119.73,609.92 119.71,609.94 119.70,609.96 119.69,610.00 119.67,610.03 119.66,610.06 119.64,610.09 119.61,610.11 119.59,610.14 119.58,610.16 119.59,610.18 119.60,610.19 119.63,610.21 119.67,610.22 119.70,610.23 119.73,610.25 119.75,610.27 119.78,610.30 119.81,610.31 119.83,610.32 119.84,610.31 119.86,610.29 119.87,610.25 119.88,610.22 119.90,610.19 119.92,610.15 119.94,610.13 119.97,610.10 120.00,610.07 120.02,610.04 120.02,610.02 120.02,610.00 120.02,609.97 120.00,609.96 119.98,609.94 119.94,609.92 119.91,609.91 119.87,609.89 119.84,609.87 119.82,609.84 119.79,609.82 119.76,609.79 119.73,609.77 119.71,609.77 119.69,609.77 119.67,609.78 119.65,609.80 119.63,609.82 119.62,609.85 119.61,609.86 119.61,609.86 119.61,609.86 119.61,609.86 119.61,609.86 119.61,609.86 119.61,609.86 119.61,609.86 119.61,609.86 119.61,609.86 119.61,609.86 119.61,609.85 119.61,609.85 119.60,609.85 119.60,609.85 119.60,609.85 119.60,609.85 119.60,609.85 119.60,609.85 119.60,609.85 119.60,609.85 119.60,609.85 119.60,609.85 119.60,609.85 119.60,609.85 119.60,609.85 119.59,609.86 119.58,609.90 119.56,609.92 119.53,609.95 119.51,609.97 119.50,609.99 119.50,610.01 119.52,610.03 119.55,610.04 119.58,610.05 119.62,610.06 119.65,610.08 119.67,610.10 119.69,610.13 119.72,610.15 119.74,610.15 119.76,610.14 119.77,610.13 119.79,610.10 119.80,610.06 119.81,610.03 119.83,610.00 119.85,609.97 119.88,609.95 119.89,609.92 119.89,609.90 119.88,609.89 119.86,609.87 119.83,609.86 119.79,609.85 119.76,609.84 119.73,609.82 119.71,609.79 119.68,609.77 119.66,609.76 119.64,609.76 119.62,609.78 119.61,609.80 119.60,609.84 119.58,609.87 119.56,609.91 119.54,609.94 119.52,609.96 119.49,609.99 119.46,610.02 119.44,610.05 119.43,610.07 119.43,610.10 119.44,610.12 119.45,610.14 119.47,610.16 119.50,610.17 119.54,610.19 119.57,610.21 119.61,610.23 119.63,610.25 119.66,610.28 119.69,610.31 119.72,610.33 119.74,610.34 119.77,610.34 119.79,610.34 119.81,610.32 119.82,610.31 119.82,610.31 119.82,610.31 119.82,610.31 119.82,610.31 119.82,610.31 119.83,610.31 119.83,610.31 119.83,610.31 119.83,610.31 119.83,610.31 119.83,610.31 119.83,610.31 119.83,610.30 119.83,610.30 119.83,610.30 119.83,610.30 119.83,610.30 119.83,610.30 119.83,610.30 119.83,610.30 119.83,610.30 119.83,610.30 119.83,610.30 119.84,610.30 119.84,610.30 119.84,610.30 119.84,610.30 119.84,610.30 119.84,610.30 119.84,610.30 119.84,610.30 119.84,610.30 119.84,610.29 119.84,610.29 119.84,610.29 119.84,610.29 119.84,610.29 119.84,610.29 119.84,610.29 119.84,610.29 119.85,610.29 119.85,610.29 119.85,610.29 119.85,610.29 119.85,610.29 119.85,610.29 119.85,610.29 119.85,610.29 119.85,610.29 119.85,610.29 119.85,610.29 119.85,610.29 119.85,610.28 119.86,610.25 119.88,610.22 119.89,610.19 119.91,610.16 119.93,610.13 119.96,610.11 119.97,610.09 119.97,610.07 119.95,610.05 119.92,610.04 119.89,610.03 119.86,610.01 119.82,610.00 119.80,609.98 119.77,609.95 119.75,609.93 119.73,609.92 119.71,609.93 119.69,609.95 119.68,609.98 119.67,610.02 119.66,610.05 119.64,610.08 119.62,610.10 119.59,610.13 119.57,610.15 119.57,610.17 119.59,610.19 119.61,610.20 119.64,610.21 119.68,610.23 119.71,610.24 119.73,610.26 119.76,610.29 119.79,610.31 119.81,610.32 119.83,610.32 119.84,610.30 119.86,610.28 119.88,610.26 119.90,610.23 119.92,610.20 119.94,610.16 119.96,610.13 119.98,610.10 120.01,610.07 120.04,610.05 120.06,610.02 120.08,609.99 120.08,609.96 120.08,609.94 120.07,609.92 120.06,609.90 120.04,609.88 120.01,609.86 119.98,609.84 119.94,609.82 119.91,609.80 119.88,609.78 119.85,609.75 119.83,609.72 119.80,609.70 119.77,609.68 119.76,609.68 119.76,609.68 119.76,609.68 119.76,609.68 119.76,609.68 119.77,609.68 119.77,609.68 119.77,609.68 119.77,609.68 119.77,609.68 119.77,609.68 119.77,609.68 119.77,609.68 119.77,609.68 119.77,609.68 119.78,609.68 119.78,609.68 119.78,609.68 119.78,609.68 119.78,609.68 119.78,609.68 119.78,609.68 119.78,609.68 119.78,609.68 119.78,609.68 119.78,609.68 119.78,609.68 119.76,609.68 119.74,609.70 119.73,609.72 119.72,609.76 119.71,609.79 119.69,609.83 119.67,609.85 119.64,609.88 119.62,609.90 119.62,609.92 119.63,609.94 119.65,609.95 119.68,609.97 119.71,609.98 119.74,609.99 119.77,610.01 119.80,610.03 119.82,610.06 119.85,610.08 119.87,610.08 119.89,610.06 119.90,610.04 119.91,610.01 119.92,609.98 119.94,609.94 119.96,609.92 119.98,609.89 120.01,609.87 120.02,609.84 120.01,609.82 120.00,609.81 119.97,609.79 119.94,609.78 119.91,609.77 119.87,609.75 119.85,609.73 119.82,609.71 119.80,609.68 119.77,609.67 119.75,609.67 119.72,609.67 119.70,609.67 119.67,609.68 119.65,609.70 119.63,609.73 119.62,609.76 119.60,609.79 119.58,609.83 119.55,609.85 119.53,609.88 119.50,609.91 119.47,609.94 119.45,609.97 119.44,610.00 119.43,610.02 119.43,610.05 119.44,610.07 119.45,610.09 119.47,610.11 119.50,610.13 119.53,610.15 119.56,610.17 119.60,610.19 119.60,610.19 119.60,610.19 119.60,610.19 119.60,610.19 119.60,610.19 119.60,610.18 119.60,610.18 119.60,610.18 119.60,610.18 119.60,610.18 119.60,610.18 119.60,610.18 119.60,610.18 119.59,610.18 119.59,610.18 119.59,610.18 119.59,610.17 119.59,610.17 119.59,610.17 119.59,610.17 119.59,610.17 119.59,610.17 119.59,610.17 119.59,610.17 119.59,610.17 119.59,610.17 119.59,610.17 119.59,610.16 119.59,610.16 119.59,610.16 119.59,610.16 119.59,610.16 119.59,610.16 119.59,610.16 119.59,610.16 119.59,610.16 119.59,610.16 119.59,610.16 119.59,610.15 119.59,610.15 119.59,610.15 119.59,610.15 119.59,610.15 119.59,610.15 119.59,610.15 119.59,610.15 119.59,610.15 119.59,610.15 119.59,610.15 119.59,610.14 119.59,610.14 119.59,610.14 119.59,610.14 119.62,610.17 119.64,610.19 119.67,610.21 119.69,610.22 119.71,610.21 119.72,610.19 119.74,610.16 119.75,610.13 119.76,610.09 119.78,610.06 119.80,610.04 119.83,610.01 119.84,609.99 119.84,609.97 119.83,609.95 119.81,609.93 119.78,609.92 119.74,609.91 119.71,609.90 119.68,609.88 119.66,609.85 119.63,609.83 119.61,609.82 119.59,609.82 119.58,609.84 119.56,609.86 119.55,609.90 119.54,609.93 119.52,609.96 119.50,609.99 119.47,610.01 119.45,610.04 119.45,610.06 119.46,610.08 119.48,610.09 119.51,610.10 119.54,610.11 119.57,610.13 119.61,610.15 119.63,610.17 119.66,610.20 119.69,610.23 119.71,610.25 119.74,610.25 119.76,610.25 119.78,610.24 119.80,610.22 119.82,610.20 119.83,610.17 119.85,610.13 119.87,610.10 119.89,610.07 119.91,610.04 119.94,610.01 119.97,609.99 119.98,609.96 119.99,609.94 119.98,609.91 119.97,609.89 119.95,609.88 119.92,609.86 119.89,609.84 119.86,609.83 119.86,609.83 119.86,609.83 119.86,609.83 119.86,609.83 119.86,609.83 119.86,609.82 119.86,609.82 119.86,609.82 119.86,609.82 119.86,609.82 119.86,609.82 119.86,609.82 119.86,609.82 119.86,609.82 119.86,609.82 119.86,609.82 119.86,609.82 119.86,609.82 119.86,609.82 119.86,609.81 119.86,609.81 119.87,609.81 119.87,609.81 119.87,609.81 119.87,609.81 119.87,609.81 119.84,609.80 119.82,609.78 119.80,609.76 119.77,609.73 119.75,609.72 119.73,609.73 119.71,609.74 119.70,609.77 119.69,609.80 119.68,609.84 119.66,609.87 119.64,609.89 119.61,609.92 119.59,609.94 119.59,609.97 119.60,609.98 119.61,610.00 119.64,610.01 119.68,610.02 119.71,610.03 119.74,610.05 119.77,610.08 119.79,610.10 119.82,610.12 119.84,610.12 119.85,610.11 119.87,610.08 119.88,610.05 119.89,610.02 119.91,609.98 119.93,609.96 119.95,609.93 119.98,609.91 119.99,609.88 119.98,609.87 119.97,609.85 119.94,609.84 119.91,609.83 119.87,609.81 119.84,609.79 119.81,609.77 119.78,609.75 119.75,609.72 119.72,609.69 119.70,609.68 119.67,609.67 119.65,609.67 119.63,609.68" fill="none" stroke="#1f77b4" stroke-width="2" opacity="0.90"/>

  <circle cx="112.55" cy="460.23" r="5" fill="#2ca02c"/>
  <circle cx="95.64" cy="465.64" r="5" fill="#ff7f0e"/>
  <path d="M 107.55 455.23 L 117.55 465.23 M 107.55 465.23 L 117.55 455.23" stroke="#2ca02c" stroke-width="2"/>
  <path d="M 114.63 604.68 L 124.63 614.68 M 114.63 614.68 L 124.63 604.68" stroke="#ff7f0e" stroke-width="2"/>

  <rect x="840" y="50" width="300" height="86" fill="white" stroke="#ddd"/>
  <line x1="860" y1="70" x2="900" y2="70" stroke="#d62728" stroke-width="3"/>
  <text x="910" y="75" font-family="monospace" font-size="14" fill="#111">reference (json)</text>
  <line x1="860" y1="92" x2="900" y2="92" stroke="#1f77b4" stroke-width="3"/>
  <text x="910" y="97" font-family="monospace" font-size="14" fill="#111">replay (odom)</text>
  <circle cx="880" cy="116" r="5" fill="#2ca02c"/>
  <text x="910" y="121" font-family="monospace" font-size="14" fill="#111">start</text>
  <circle cx="880" cy="136" r="5" fill="#ff7f0e"/>
  <text x="910" y="141" font-family="monospace" font-size="14" fill="#111">end</text>
</svg>
