<?xml version="1.0" encoding="UTF-8"?>
<svg xmlns="http://www.w3.org/2000/svg" width="1200" height="800" viewBox="0 0 1200 800">
  <rect x="0" y="0" width="1200" height="800" fill="white"/>
  <text x="60" y="40" font-family="monospace" font-size="16" fill="#111">Reference vs replay | ref_close=0.60m replay_close=5.38m mean=0.21m p95=0.43m max=0.72m cover=93.7% | 2025-10-29-16-05-00.bag /liorl/mapping/path</text>
  <rect x="60" y="60" width="1080" height="680" fill="none" stroke="#aaa" stroke-width="1"/>

  <polyline points="112.32,460.30 142.59,459.08 172.25,458.95 203.21,459.84 234.17,457.30 265.31,458.17 296.81,458.62 326.70,459.85 356.49,464.34 365.53,476.63 368.09,503.89 365.54,525.13 371.38,544.57 381.94,572.86 390.05,604.12 398.68,633.76 407.76,662.48 416.64,679.79 427.79,684.52 467.65,685.30 497.55,689.98 532.91,686.46 563.55,688.28 592.88,688.70 622.63,691.39 654.87,692.67 685.72,694.09 715.96,695.72 745.72,700.89 775.53,702.23 806.71,703.46 836.56,705.15 867.81,705.14 899.47,706.76 929.32,712.10 961.34,714.89 991.64,717.98 1023.87,719.39 1054.60,721.81 1086.37,724.14 1110.13,721.90 1120.53,711.14 1117.35,697.99 1113.32,668.43 1105.14,650.03 1093.91,630.06 1084.86,609.10 1091.68,598.44 1095.37,566.12 1091.03,553.60 1083.14,525.69 1063.50,510.22 1042.50,504.72 1010.62,498.01 980.86,493.13 951.01,490.63 918.89,487.05 887.25,485.40 854.52,485.10 823.02,482.86 791.48,481.72 757.70,480.53 726.63,479.69 694.94,475.87 665.60,475.31 635.37,476.30 602.48,475.24 571.91,474.56 538.65,472.34 508.50,470.32 475.50,468.30 441.94,466.01 409.51,467.44 388.00,482.88 379.26,493.03 379.55,506.91 380.31,544.42 386.66,561.78 391.34,575.20 394.47,605.17 402.01,635.86 403.94,666.39 397.83,683.81 384.80,690.23 370.13,690.51 330.47,688.37 299.62,689.46 270.18,687.74 241.16,682.29 210.70,676.79 177.95,672.47 149.06,666.86 130.94,659.25 118.40,641.93 112.81,624.56 109.04,580.62 102.11,556.13 92.51,528.03 82.00,498.65 74.68,468.33 83.79,459.11 95.48,465.69" fill="none" stroke="#d62728" stroke-width="2" opacity="0.95"/>
  <polyline points="112.32,460.30 127.16,477.21 127.16,477.21 127.15,477.21 127.15,477.21 127.15,477.21 127.15,477.21 127.15,477.21 127.15,477.21 127.15,477.21 127.15,477.21 127.15,477.21 127.15,477.21 126.81,477.21 126.24,477.27 125.18,477.45 124.07,477.70 122.98,478.01 121.90,478.37 120.85,478.80 119.82,479.28 118.82,479.81 117.90,480.37 117.18,480.86 116.69,481.23 116.50,481.34 116.73,481.07 117.36,480.44 118.28,479.33 119.45,477.73 120.73,475.75 121.97,473.58 123.17,471.28 124.36,468.95 125.54,466.69 126.67,464.66 127.73,462.90 128.65,461.52 129.40,460.53 129.97,459.87 130.36,459.44 130.59,459.16 130.62,459.06 130.42,459.16 130.08,459.37 129.64,459.63 129.09,459.94 128.46,460.25 127.78,460.54 127.01,460.81 126.22,461.03 125.39,461.21 124.51,461.35 123.59,461.44 122.64,461.48 121.56,461.46 120.44,461.38 120.32,461.35 121.07,461.42 122.51,461.57 124.48,461.75 126.09,461.84 127.55,461.83 129.09,461.73 130.99,461.51 133.25,461.15 135.47,460.75 137.69,460.29 140.11,459.75 142.64,459.21 145.22,458.71 147.81,458.27 150.40,457.88 152.83,457.55 154.99,457.33 157.12,457.21 159.23,457.20 161.41,457.31 163.73,457.50 166.15,457.77 168.73,458.09 171.34,458.37 173.97,458.60 176.57,458.74 179.23,458.84 181.85,458.93 184.48,459.03 187.11,459.14 189.71,459.26 192.37,459.40 194.99,459.54 197.62,459.70 200.25,459.84 202.88,459.98 205.51,460.10 208.14,460.20 210.73,460.24 213.29,460.17 215.82,460.00 218.34,459.71 220.85,459.37 223.40,458.96 225.84,458.55 228.24,458.19 230.78,457.83 233.39,457.50 235.92,457.19 238.54,456.90 241.11,456.64 243.75,456.38 246.37,456.18 248.86,456.08 251.36,456.10 253.82,456.23 256.30,456.47 258.63,456.74 260.95,457.08 263.43,457.49 265.90,457.86 268.54,458.20 271.16,458.44 273.80,458.60 276.43,458.68 279.04,458.68 281.71,458.64 284.34,458.61 286.97,458.58 289.57,458.55 292.14,458.52 294.78,458.51 297.38,458.45 300.02,458.35 302.65,458.27 305.29,458.25 307.93,458.31 310.56,458.42 313.18,458.57 315.80,458.75 318.40,458.94 320.98,459.12 323.59,459.29 326.22,459.42 328.85,459.53 331.47,459.66 334.10,459.77 336.72,459.87 339.30,459.97 341.98,460.14 344.56,460.40 347.06,460.77 349.35,461.24 351.48,461.80 353.61,462.50 355.40,463.22 356.87,463.91 357.97,464.51 358.88,465.09 359.93,465.82 360.79,466.51 361.46,467.10 362.01,467.65 362.53,468.23 363.03,468.84 363.96,470.17 365.09,472.03 366.23,474.17 367.25,476.40 368.11,478.62 368.85,480.86 369.47,483.06 369.93,485.12 370.25,486.91 370.45,488.67 370.54,490.23 370.55,491.70 370.45,493.30 370.28,494.83 370.04,496.33 369.71,497.96 369.20,500.16 368.54,502.69 367.84,505.22 367.14,507.74 366.47,510.28 365.88,512.84 365.40,515.33 365.05,517.60 364.81,519.70 364.72,521.32 364.70,522.08 364.77,523.11 364.97,524.97 365.34,527.36 365.86,529.94 366.49,532.49 367.23,534.95 368.08,537.34 368.80,539.14 369.48,540.82 370.31,542.96 371.19,545.37 372.03,547.86 372.80,550.33 373.57,552.79 374.39,555.24 375.30,557.67 376.31,560.06 377.39,562.44 378.50,564.81 379.52,567.00 380.51,569.17 381.38,571.19 382.30,573.55 383.12,576.00 383.83,578.53 384.47,581.07 385.06,583.63 385.64,586.20 386.21,588.76 386.81,591.32 387.42,593.87 388.04,596.40 388.60,598.77 389.15,601.17 389.70,603.74 390.21,606.31 390.72,608.89 391.22,611.47 391.72,614.05 392.25,616.61 392.86,619.09 393.59,621.52 394.43,623.90 395.35,626.25 396.25,628.34 397.06,630.19 397.99,632.45 398.91,634.90 399.72,637.40 400.46,639.91 401.17,642.44 401.87,644.97 402.59,647.50 403.30,650.02 404.01,652.55 404.76,655.05 405.56,657.51 406.39,659.98 407.23,662.47 408.08,664.95 408.97,667.42 409.95,669.85 411.01,672.15 412.08,674.19 413.24,676.10 414.00,677.20 414.37,677.65 414.60,677.85 415.18,678.46 416.21,679.39 417.68,680.56 419.55,681.86 421.54,683.08 423.59,684.18 425.71,685.16 427.89,686.01 430.13,686.73 432.40,687.32 434.72,687.80 437.08,688.17 439.45,688.43 441.84,688.56 444.23,688.55 446.64,688.40 449.05,688.13 451.47,687.77 453.97,687.35 456.52,686.87 459.00,686.40 461.51,685.93 464.10,685.47 466.60,685.06 468.78,684.79 470.72,684.66 472.54,684.64 474.41,684.73 476.53,684.96 478.84,685.34 481.22,685.83 483.69,686.44 486.21,687.13 488.67,687.84 491.09,688.54 493.37,689.18 495.59,689.75 497.88,690.26 500.19,690.68 502.55,691.00 504.92,691.20 507.28,691.26 509.62,691.19 511.96,690.98 514.30,690.63 516.60,690.20 518.96,689.68 521.43,689.06 523.86,688.42 526.10,687.82 528.30,687.27 530.80,686.68 533.36,686.14 535.82,685.70 538.32,685.37 540.80,685.19 543.38,685.16 545.84,685.26 548.28,685.49 550.73,685.81 553.16,686.21 555.58,686.67 557.81,687.12 560.06,687.60 562.64,688.12 565.22,688.57 567.83,688.93 570.45,689.20 573.09,689.38 575.72,689.45 578.36,689.42 581.00,689.31 583.60,689.17 586.12,689.01 588.68,688.84 591.31,688.66 593.94,688.47 596.51,688.36 599.02,688.36 601.61,688.50 604.23,688.73 606.83,689.03 609.43,689.39 612.03,689.79 614.62,690.23 617.20,690.69 619.79,691.14 622.51,691.54 625.45,691.91 628.21,692.26 630.81,692.56 633.44,692.80 636.07,692.99 638.71,693.10 641.35,693.12 643.98,693.08 646.60,692.99 649.03,692.88 651.47,692.75 654.10,692.62 656.72,692.48 659.22,692.31 661.74,692.22 664.38,692.23 667.01,692.34 669.64,692.49 672.25,692.69 674.86,692.92 677.45,693.16 679.93,693.42 682.44,693.69 685.06,693.96 687.69,694.17 690.31,694.32 692.94,694.44 695.57,694.54 698.20,694.60 700.84,694.67 703.47,694.76 706.09,694.84 708.69,694.94 711.30,695.04 713.85,695.12 716.34,695.23 718.87,695.43 721.46,695.75 724.05,696.18 726.62,696.70 729.18,697.30 731.72,697.95 734.26,698.62 736.75,699.26 739.23,699.87 741.70,700.42 744.26,700.90 746.86,701.28 749.47,701.56 752.10,701.76 754.74,701.88 757.37,701.92 760.01,701.92 762.64,701.91 765.25,701.92 767.90,701.95 770.53,701.98 773.10,702.02 775.72,702.06 778.35,702.06 780.99,702.00 783.62,701.97 786.26,702.01 788.89,702.10 791.51,702.22 794.14,702.38 796.76,702.55 799.37,702.74 801.98,702.94 804.61,703.13 807.24,703.27 809.87,703.34 812.50,703.41 815.13,703.53 817.74,703.69 820.38,703.87 823.00,704.05 825.62,704.25 828.19,704.47 830.68,704.69 833.23,704.92 835.84,705.19 838.44,705.51 841.04,705.82 843.64,706.09 846.25,706.31 848.85,706.46 851.41,706.48 853.97,706.38 856.53,706.20 859.06,705.98 861.55,705.75 864.13,705.48 866.75,705.21 869.38,704.98 872.01,704.86 874.65,704.85 877.28,704.91 879.91,705.01 882.53,705.14 885.16,705.30 887.78,705.49 890.41,705.69 892.91,705.88 895.41,706.07 898.02,706.28 900.64,706.45 903.21,706.66 905.73,706.96 908.24,707.38 910.82,707.91 913.37,708.51 915.92,709.13 918.47,709.76 920.95,710.38 923.29,710.95 925.65,711.51 928.16,712.04 930.75,712.49 933.36,712.85 935.98,713.12 938.60,713.31 941.23,713.44 943.85,713.57 946.48,713.71 949.10,713.87 951.73,714.04 954.26,714.21 956.64,714.39 959.12,714.59 961.74,714.80 964.37,714.98 966.99,715.17 969.61,715.41 972.22,715.68 974.84,715.97 977.45,716.24 980.07,716.51 982.67,716.81 985.26,717.15 987.86,717.51 990.47,717.84 993.09,718.11 995.72,718.31 998.34,718.43 1000.99,718.51 1003.61,718.56 1006.24,718.60 1008.87,718.68 1011.50,718.77 1014.13,718.87 1016.76,718.97 1019.40,719.07 1022.04,719.14 1024.67,719.14 1027.31,719.21 1029.94,719.37 1032.56,719.56 1035.18,719.78 1037.79,720.01 1040.41,720.24 1043.03,720.49 1045.65,720.73 1048.27,720.97 1050.89,721.19 1053.52,721.36 1056.14,721.46 1058.71,721.59 1061.33,721.81 1063.94,722.09 1066.55,722.40 1069.16,722.71 1071.77,723.05 1074.37,723.40 1076.98,723.73 1079.59,724.01 1082.21,724.25 1084.83,724.49 1087.45,724.74 1090.05,724.97 1092.70,725.17 1095.34,725.31 1097.97,725.32 1100.49,725.19 1102.74,724.94 1104.84,724.59 1106.36,724.25 1107.19,724.02 1107.94,723.75 1109.01,723.31 1110.48,722.61 1112.30,721.61 1114.17,720.42 1115.83,719.22 1117.22,718.08 1118.49,716.90 1119.46,715.89 1120.15,715.09 1120.57,714.57 1120.80,714.22 1121.17,713.63 1121.71,712.66 1122.37,711.15 1123.09,709.17 1123.75,706.97 1124.28,704.73 1124.71,702.46 1125.04,700.17 1125.24,697.93 1125.32,695.67 1125.26,693.47 1125.11,691.57 1124.82,689.51 1124.50,687.89 1124.13,686.48 1123.63,684.92 1123.03,683.33 1122.31,681.72 1121.44,680.05 1120.39,678.28 1119.19,676.45 1117.85,674.55 1116.54,672.77 1115.21,671.01 1113.90,669.18 1112.63,667.22 1111.46,665.16 1110.40,663.04 1109.39,660.78 1108.43,658.38 1107.52,655.94 1106.60,653.49 1105.60,651.06 1104.50,648.69 1103.30,646.37 1102.03,644.08 1100.70,641.82 1099.35,639.58 1097.98,637.35 1096.64,635.17 1095.29,632.97 1093.92,630.74 1092.56,628.51 1091.24,626.25 1090.00,623.96 1088.87,621.63 1087.88,619.28 1087.01,616.89 1086.34,614.79 1085.71,612.37 1085.20,609.80 1084.78,607.19 1084.50,604.63 1084.37,602.30 1084.38,600.00 1084.53,597.67 1084.81,595.30 1085.23,592.91 1085.78,590.52 1086.49,588.12 1087.33,585.71 1088.31,583.29 1089.34,580.89 1090.41,578.50 1091.46,576.10 1092.48,573.69 1093.39,571.35 1094.01,569.56 1094.52,567.90 1095.00,565.77 1095.42,563.46 1095.73,560.96 1095.94,558.33 1096.05,555.70 1096.02,553.10 1095.87,550.52 1095.58,547.98 1095.15,545.49 1094.59,543.04 1093.91,540.68 1093.13,538.43 1092.24,536.31 1091.30,534.39 1090.39,532.80 1089.56,531.52 1088.70,530.37 1087.49,528.93 1085.86,527.09 1084.13,525.13 1082.39,523.18 1080.60,521.28 1078.75,519.44 1076.81,517.68 1074.79,516.03 1072.69,514.50 1070.56,513.13 1068.39,511.92 1066.06,510.78 1063.66,509.75 1061.22,508.84 1058.71,508.03 1056.18,507.33 1053.63,506.74 1051.05,506.23 1048.67,505.82 1046.29,505.46 1043.78,505.12 1041.21,504.83 1038.59,504.58 1036.00,504.35 1033.47,504.11 1030.95,503.81 1028.48,503.41 1026.04,502.88 1023.57,502.23 1021.11,501.47 1018.70,500.68 1016.48,499.92 1014.40,499.20 1012.71,498.65 1010.52,498.03 1008.00,497.44 1005.42,496.96 1002.82,496.56 1000.23,496.19 997.62,495.81 995.03,495.42 992.44,495.02 989.86,494.61 987.44,494.21 985.18,493.84 982.81,493.44 980.27,493.05 977.66,492.72 975.05,492.43 972.44,492.16 969.81,491.94 967.18,491.80 964.55,491.69 961.94,491.55 959.30,491.37 956.68,491.18 954.05,491.00 951.41,490.88 948.78,490.80 946.14,490.76 943.56,490.77 940.97,490.73 938.38,490.59 935.78,490.33 933.22,489.98 930.69,489.54 928.13,489.02 925.78,488.51 923.47,488.00 920.98,487.44 918.46,486.92 915.96,486.48 913.39,486.14 910.77,485.90 908.13,485.74 905.50,485.67 902.86,485.65 900.23,485.66 897.62,485.67 895.00,485.66 892.59,485.62 890.13,485.55 887.50,485.46 884.87,485.38 882.22,485.35 879.58,485.42 876.95,485.53 874.31,485.66 871.68,485.76 869.04,485.78 866.41,485.74 863.79,485.67 861.27,485.58 858.87,485.48 856.36,485.35 853.74,485.23 851.10,485.15 848.47,485.08 845.84,485.07 843.20,485.08 840.62,485.05 838.08,484.93 835.54,484.73 833.01,484.45 830.54,484.11 828.11,483.74 825.61,483.32 823.03,482.91 820.48,482.56 817.88,482.29 815.25,482.11 812.62,482.03 809.98,482.02 807.35,482.03 804.72,482.04 802.09,482.04 799.52,482.01 796.96,481.99 794.43,481.95 791.84,481.90 789.25,481.91 786.63,482.00 784.00,482.13 781.38,482.29 778.73,482.43 776.12,482.50 773.60,482.47 771.08,482.33 768.58,482.11 766.10,481.83 763.63,481.47 761.14,481.09 758.54,480.73 755.93,480.45 753.28,480.24 750.65,480.16 748.01,480.16 745.38,480.19 742.76,480.21 740.12,480.20 737.48,480.19 734.91,480.17 732.43,480.13 729.89,480.07 727.25,480.00 724.62,479.96 721.99,479.91 719.35,479.89 716.86,479.84 714.45,479.70 712.08,479.44 709.80,479.11 707.46,478.67 704.99,478.13 702.61,477.57 700.30,477.01 697.83,476.41 695.27,475.85 692.68,475.38 690.08,475.02 687.46,474.74 684.83,474.54 682.19,474.43 679.57,474.42 676.92,474.48 674.29,474.61 671.85,474.77 669.45,474.95 666.84,475.14 664.21,475.31 661.87,475.49 659.63,475.71 657.40,476.02 655.18,476.44 653.00,476.96 650.86,477.61 648.76,478.37 646.78,479.22 645.10,480.06 643.65,480.91 642.38,481.76 641.75,482.20 641.26,482.57 640.58,483.05 639.95,483.49 639.58,483.72 639.39,483.87 638.97,484.09 638.32,484.37 637.54,484.63 636.47,484.91 635.17,485.15 633.90,485.31 632.50,485.40 630.99,485.40 629.47,485.31 628.04,485.15 626.33,484.85 624.29,484.37 622.09,483.74 619.85,482.94 617.54,481.99 615.19,480.92 612.85,479.79 610.55,478.67 608.31,477.59 606.33,476.67 604.21,475.78 601.89,474.93 599.68,474.25 597.52,473.72 595.17,473.28 592.99,472.95 590.94,472.75 588.90,472.68 586.72,472.72 584.60,472.86 582.30,473.10 579.93,473.39 577.76,473.67 575.62,473.97 573.04,474.34 570.44,474.71 567.84,475.04 565.23,475.34 562.89,475.62 560.62,475.81 558.40,475.88 556.10,475.81 553.86,475.62 551.59,475.32 549.27,474.92 546.89,474.43 544.60,473.88 542.47,473.37 539.95,472.80 537.40,472.32 534.84,471.95 532.22,471.68 529.59,471.51 526.96,471.40 524.34,471.31 521.71,471.20 519.10,471.08 516.46,470.94 513.83,470.78 511.19,470.64 508.55,470.53 505.93,470.50 503.28,470.55 500.64,470.63 498.01,470.70 495.37,470.71 492.74,470.63 490.11,470.45 487.49,470.20 484.90,469.87 482.32,469.48 479.81,469.06 477.26,468.65 474.66,468.29 472.08,468.01 469.47,467.83 466.85,467.73 464.21,467.64 461.58,467.51 458.96,467.33 456.34,467.12 453.72,466.89 451.10,466.64 448.49,466.38 445.87,466.12 443.24,465.92 440.61,465.78 437.96,465.73 435.33,465.78 432.77,465.80 430.19,465.78 427.60,465.75 424.96,465.69 422.32,465.63 419.75,465.58 417.34,465.62 414.94,465.76 412.59,466.01 410.28,466.40 408.05,466.90 405.90,467.52 403.92,468.20 402.18,468.91 400.57,469.69 398.99,470.57 397.50,471.53 396.38,472.35 395.42,473.14 394.45,474.05 393.47,475.10 392.55,476.20 391.43,477.69 390.01,479.68 388.51,481.82 387.07,484.00 385.71,486.23 384.45,488.51 383.29,490.87 382.26,493.27 381.37,495.73 380.64,498.15 380.10,500.42 379.67,502.66 379.34,505.18 379.09,507.79 378.86,510.41 378.62,513.01 378.35,515.64 378.07,518.25 377.81,520.87 377.58,523.49 377.40,526.12 377.33,528.77 377.39,531.40 377.59,534.03 377.93,536.64 378.37,538.92 378.93,541.20 379.67,543.72 380.49,546.21 381.36,548.68 382.26,551.13 383.22,553.56 384.17,555.88 385.12,558.12 385.94,560.12 386.84,562.48 387.64,564.96 388.31,567.44 388.87,570.00 389.34,572.59 389.72,575.19 390.07,577.80 390.42,580.41 390.77,583.02 391.14,585.62 391.51,588.21 391.92,590.83 392.34,593.42 392.74,596.02 393.12,598.53 393.47,600.95 393.84,603.48 394.18,606.09 394.49,608.71 394.76,611.18 395.08,613.45 395.49,615.69 396.01,617.88 396.64,620.14 397.40,622.46 398.25,624.84 399.16,627.26 400.10,629.66 400.93,631.75 401.79,634.08 402.60,636.26 403.42,638.35 404.35,640.40 405.39,642.39 406.54,644.29 407.80,646.11 409.18,647.86 410.52,649.37 411.83,650.66 413.23,651.88 414.52,652.88 415.69,653.68 416.70,654.30 417.55,654.78 418.23,655.12 418.72,655.34 419.03,655.43 419.05,655.40 419.07,655.38 419.13,655.36 419.24,655.35 419.52,655.34 419.87,655.32 420.05,655.29 420.03,655.26 420.02,655.23 420.01,655.20 419.99,655.17 419.97,655.14 419.95,655.12 419.92,655.10 419.89,655.07 419.85,655.06 419.80,655.04 419.75,655.03 419.70,655.02 419.64,655.01 419.58,655.00 419.52,655.00 419.46,655.00 419.41,655.01 419.35,655.03 419.29,655.07 419.24,655.10 419.18,655.15 419.13,655.20 419.09,655.25 419.05,655.30 419.01,655.36 418.97,655.42 418.94,655.44 418.91,655.48 418.88,655.54 418.86,655.57 418.83,655.61 418.81,655.68 418.80,655.74 418.78,655.78 418.77,655.85 418.76,655.90 418.74,655.94 418.69,655.94 418.61,655.90 418.61,655.96 418.56,655.97 418.48,655.95 418.49,656.02 418.44,656.03 418.32,655.99 418.36,656.07 418.35,656.11 418.31,656.12 418.19,656.10 418.04,656.07 418.02,656.09 417.99,656.12 417.85,656.11 417.60,656.10 417.32,656.09 416.94,656.08 416.45,656.08 415.69,656.10 414.89,656.17 414.31,656.25 413.76,656.36 413.15,656.53 412.42,656.77 411.74,657.04 411.13,657.33 410.45,657.69 409.68,658.15 408.88,658.70 408.06,659.33 406.92,660.33 405.79,661.44 404.58,662.80 403.39,664.30 402.18,666.06 400.99,668.01 399.88,670.11 398.84,672.35 397.86,674.75 396.94,677.20 396.05,679.66 395.57,680.96 395.22,681.76 395.05,682.18 394.96,682.41 394.77,682.78 394.43,683.27 393.90,683.94 393.34,684.57 392.64,685.29 391.84,686.02 390.87,686.80 389.77,687.61 388.63,688.35 387.35,689.09 386.19,689.68 385.07,690.16 383.95,690.56 382.72,690.92 381.58,691.20 380.51,691.40 379.50,691.53 378.27,691.60 376.40,691.64 374.03,691.66 371.39,691.68 368.75,691.76 366.13,691.88 363.49,692.02 360.85,692.10 358.21,692.12 355.58,692.03 352.97,691.84 350.34,691.54 347.74,691.16 345.17,690.71 342.61,690.21 340.03,689.69 337.57,689.22 335.16,688.81 332.63,688.43 330.02,688.11 327.42,687.85 324.81,687.62 322.19,687.47 319.59,687.46 317.01,687.58 314.47,687.79 311.89,688.08 309.28,688.39 306.83,688.71 304.41,689.02 301.81,689.36 299.20,689.69 296.59,690.00 293.96,690.22 291.33,690.41 288.89,690.60 286.43,690.69 283.98,690.65 281.76,690.49 279.82,690.24 277.94,689.91 276.12,689.52 274.65,689.20 272.63,688.76 270.19,688.30 267.59,687.91 264.98,687.58 262.38,687.25 259.78,686.87 257.20,686.40 254.65,685.85 252.09,685.23 249.60,684.58 247.21,683.92 245.02,683.30 242.97,682.76 240.55,682.19 237.98,681.67 235.41,681.25 232.84,680.92 230.23,680.62 227.63,680.30 225.03,679.92 222.45,679.44 219.88,678.90 217.34,678.31 214.88,677.70 212.38,677.12 209.82,676.60 207.22,676.18 204.61,675.87 202.00,675.61 199.39,675.34 196.78,675.05 194.17,674.74 191.57,674.44 188.95,674.12 186.34,673.78 183.74,673.44 181.19,673.11 178.60,672.82 175.98,672.54 173.36,672.25 170.75,672.00 168.13,671.76 165.51,671.51 162.90,671.19 160.32,670.76 157.82,670.22 155.52,669.60 153.24,668.84 150.77,667.92 148.31,667.02 145.83,666.16 143.35,665.32 140.90,664.46 138.51,663.56 136.26,662.62 134.09,661.62 132.13,660.57 130.43,659.53 128.84,658.42 127.34,657.22 125.89,655.91 124.53,654.52 123.50,653.34 122.58,652.18 121.74,651.00 121.05,649.94 120.47,648.94 119.81,647.50 118.96,645.38 118.06,642.96 117.19,640.49 116.33,638.01 115.49,635.53 114.71,633.12 114.05,630.87 113.49,628.66 113.01,626.43 112.53,624.42 111.77,624.22 111.02,624.01 110.30,623.77 109.58,623.51 108.86,623.21 108.14,622.88 107.46,622.55 106.80,622.20 106.13,621.80 105.48,621.40 104.85,620.98 104.22,620.53 103.64,620.07 103.06,619.58 102.51,619.08 101.97,618.56 101.44,618.01 100.92,617.40 100.43,616.80 99.99,616.20 99.57,615.58 99.20,615.00 99.20,615.01 99.19,615.01 99.19,615.01 99.19,615.01 99.19,615.01 99.19,615.01 99.19,615.01 99.19,615.01 99.19,615.01 99.19,615.01 99.19,615.01 99.19,615.01 99.19,615.01 99.19,615.01 99.18,615.01 99.18,615.01 99.18,615.01 99.18,615.01 99.18,615.01 99.18,615.01 99.18,615.01 99.18,615.01 99.18,615.01 99.18,615.01 99.18,615.01 99.18,615.01 99.16,615.00 99.14,615.01 99.13,615.03 99.12,615.05 99.11,615.09 99.10,615.12 99.08,615.15 99.06,615.18 99.04,615.21 99.01,615.23 99.01,615.25 99.53,614.68 99.83,614.02 99.98,613.75 99.86,614.14 99.82,614.88 99.77,615.62 99.64,616.07 99.74,615.87 99.97,615.28 100.15,614.66 100.17,614.69 100.15,615.13 100.18,615.73 100.26,616.37 100.31,616.90 100.34,616.89 100.36,616.85 100.38,616.81 100.41,616.77 100.42,616.73 100.43,616.69 100.44,616.64 100.46,616.60 100.45,616.58 100.43,616.57 100.44,616.51 100.50,616.39 100.48,616.37 100.44,616.36 100.37,616.91 100.38,616.90 100.59,616.70 100.63,616.67 100.65,616.65 100.58,616.84 100.69,617.28 100.74,617.37 100.72,617.35 100.69,617.34 100.66,617.35 100.64,617.37 100.62,617.39 100.61,617.43 100.59,617.46 100.57,617.50 100.55,617.53 100.53,617.56 100.50,617.58 100.47,617.61 100.46,617.64 100.45,617.67 100.62,617.42 100.63,617.44 100.64,617.46 100.66,617.48 100.69,617.50 100.72,617.52 100.75,617.53 100.79,617.55 100.81,617.56 100.81,617.56 100.81,617.56 100.81,617.56 100.81,617.56 100.81,617.56 100.81,617.56 100.81,617.56 100.81,617.56 100.81,617.56 100.81,617.56 100.82,617.56 100.82,617.56 100.82,617.56 100.82,617.56 100.82,617.56 100.82,617.56 100.82,617.56 100.82,617.56 100.82,617.56 100.82,617.56 100.82,617.56 100.82,617.56 100.83,617.57 100.83,617.57 100.83,617.57 100.83,617.57 100.86,617.59 100.88,617.61 100.91,617.63 100.93,617.64 100.95,617.63 100.96,617.61 100.97,617.58 100.98,617.54 100.99,617.51 101.01,617.48 101.03,617.45 101.06,617.43 101.07,617.40 101.07,617.38 101.06,617.37 101.04,617.35 101.00,617.34 100.98,617.62 100.95,617.65 100.92,617.63 100.89,617.61 100.87,617.58 100.84,617.57 100.82,617.57 100.81,617.59 100.79,617.61 100.78,617.64 100.77,617.68 100.76,617.71 100.74,617.74 100.72,617.76 100.69,617.79 100.68,617.81 100.69,617.83 100.71,617.85 100.74,617.86 100.77,617.87 100.81,617.88 100.84,617.90 100.87,617.92 100.90,617.94 100.93,617.97 100.95,617.99 100.98,618.00 101.00,618.00 101.02,617.99 101.04,617.97 101.06,617.95 101.07,617.92 101.09,617.88 101.10,617.85 101.12,617.81 101.14,617.79 101.17,617.76 101.20,617.73 101.21,617.70 101.22,617.68 101.21,617.65 101.20,617.64 101.18,617.62 101.15,617.60 101.12,617.59 101.11,617.80 101.10,617.80 101.10,617.80 101.10,617.80 101.10,617.80 101.10,617.81 101.10,617.81 101.10,617.81 101.10,617.81 101.10,617.81 101.10,617.81 101.10,617.81 101.10,617.81 101.10,617.81 101.10,617.81 101.10,617.81 101.10,617.82 101.10,617.82 101.10,617.82 101.10,617.82 101.10,617.82 101.10,617.82 101.10,617.82 101.10,617.82 101.10,617.82 101.10,617.82 101.10,617.82 101.10,617.83 101.10,617.83 101.10,617.83 101.10,617.83 101.10,617.83 101.10,617.83 101.10,617.83 101.10,617.83 101.10,617.83 101.10,617.83 101.10,617.83 101.10,617.84 101.10,617.84 101.10,617.84 101.10,617.84 101.10,617.84 101.10,617.84 101.10,617.84 101.10,617.84 101.10,617.84 101.10,617.84 101.10,617.84 101.10,617.85 101.10,617.85 101.10,617.85 101.10,617.85 101.10,617.85 101.10,617.85 101.10,617.85 101.10,617.85 101.07,617.84 101.04,617.82 101.02,617.79 100.99,617.77 100.97,617.77 100.95,617.78 100.94,617.80 100.93,617.83 100.92,617.86 100.91,617.90 100.89,617.93 100.87,617.95 100.84,617.98 100.83,618.00 100.83,618.02 100.84,618.04 100.87,618.05 100.90,618.06 100.93,618.07 100.97,618.09 100.99,618.11 101.02,618.13 101.05,618.15 101.07,618.16 101.09,618.15 101.10,618.14 101.11,618.11 101.12,618.08 101.13,618.04 101.15,618.01 101.17,617.98 101.19,617.96 101.21,617.93 101.22,617.91 101.21,617.89 101.19,617.88 101.15,617.87 101.12,617.86 101.08,617.85 101.05,617.83 101.02,617.80 100.99,617.78 100.96,617.75 100.93,617.72 100.91,617.71 100.88,617.71 100.86,617.71 100.83,617.72 100.81,617.73 100.80,617.75 100.78,617.78 100.76,617.81 100.75,617.85 100.73,617.88 100.71,617.91 100.68,617.94 100.65,617.97 100.63,618.00 100.61,618.02 100.60,618.05 100.67,617.98 100.68,618.00 100.69,618.02 100.70,618.03 100.70,618.03 100.70,618.03 100.70,618.03 100.70,618.03 100.70,618.02 100.70,618.02 100.69,618.02 100.69,618.02 100.69,618.02 100.69,618.02 100.69,618.02 100.69,618.02 100.69,618.02 100.69,618.02 100.69,618.02 100.69,618.02 100.69,618.01 100.69,618.01 100.69,618.01 100.69,618.01 100.69,618.01 100.69,618.01 100.69,618.01 100.69,618.01 100.69,618.01 100.70,618.01 100.73,618.02 100.76,618.03 100.80,618.04 100.82,618.06 100.85,618.09 100.88,618.11 100.90,618.12 100.92,618.11 100.93,618.09 100.94,618.07 100.95,618.03 100.96,618.00 100.98,617.96 101.00,617.94 101.02,617.91 101.04,617.89 101.05,617.87 101.04,617.85 101.02,617.84 100.99,617.82 100.95,617.82 100.92,617.80 100.89,617.79 100.86,617.76 100.84,617.74 100.81,617.72 100.79,617.73 100.77,617.74 100.76,617.76 100.75,617.79 100.74,617.83 100.73,617.86 100.71,617.89 100.69,617.91 100.66,617.94 100.65,617.96 100.67,617.96 100.69,617.98 100.71,618.00 100.73,618.02 100.76,618.03 100.79,618.05 100.83,618.07 100.86,618.09 100.89,618.11 100.92,618.14 100.95,618.16 100.98,618.19 101.00,618.20 101.03,618.21 101.05,618.21 101.08,618.20 101.10,618.18 101.12,618.16 101.13,618.14 101.15,618.11 101.17,618.07 101.18,618.04 101.21,618.01 101.23,617.98 101.26,617.95 101.29,617.92 101.30,617.89 101.30,617.89 101.30,617.89 101.30,617.89 101.30,617.89 101.30,617.89 101.30,617.88 101.30,617.88 101.30,617.88 101.30,617.88 101.30,617.88 101.30,617.88 101.30,617.88 101.30,617.88 101.30,617.88 101.30,617.88 101.30,617.88 101.30,617.88 101.30,617.88 101.30,617.88 101.30,617.87 101.30,617.87 101.30,617.87 101.30,617.87 101.30,617.87 101.30,617.87 101.30,617.87 101.30,617.87 101.30,617.87 101.30,617.87 101.30,617.87 101.30,617.87 101.30,617.87 101.30,617.86 101.30,617.86 101.30,617.86 101.30,617.86 101.30,617.86 101.30,617.86 101.30,617.86 101.30,617.86 101.30,617.86 101.30,617.86 101.30,617.86 101.30,617.86 101.30,617.86 101.30,617.85 101.30,617.85 101.30,617.85 101.30,617.85 101.30,617.85 101.30,617.85 101.30,617.85 101.30,617.85 101.30,617.83 101.29,617.81 101.26,617.80 101.23,617.79 101.20,617.83 101.17,617.89 101.14,617.87 101.12,617.85 101.09,617.82 101.07,617.81 101.05,617.81 101.03,617.83 101.02,617.85 101.01,617.89 101.00,617.92 100.99,617.95 100.97,617.98 100.94,618.00 100.92,618.03 100.91,618.05 100.92,618.07 100.94,618.09 100.96,618.10 101.00,618.11 101.04,618.12 101.07,618.13 101.09,618.15 101.12,618.18 101.14,618.20 101.16,618.20 101.18,618.19 101.19,618.17 101.20,618.14 101.21,618.10 101.23,618.07 101.24,618.04 101.27,618.01 101.29,617.98 101.31,617.96 101.32,617.93 101.32,617.91 101.31,617.88 101.30,617.86 101.27,617.85 101.25,617.83 101.22,617.81 101.19,617.89 101.15,617.88 101.12,617.86 101.10,617.83 101.07,617.80 101.04,617.78 101.01,617.76 100.98,617.75 100.96,617.74 100.93,617.75 100.91,617.76 100.89,617.78 100.87,617.80 100.86,617.83 100.84,617.86 100.82,617.90 100.80,617.93 100.80,617.94 100.80,617.94 100.80,617.94 100.80,617.94 100.80,617.94 100.80,617.94 100.80,617.94 100.80,617.95 100.80,617.95 100.80,617.95 100.80,617.95 100.80,617.95 100.80,617.95 100.80,617.95 100.80,617.95 100.79,617.95 100.79,617.95 100.79,617.95 100.79,617.95 100.79,617.96 100.79,617.96 100.79,617.96 100.79,617.96 100.79,617.96 100.79,617.96 100.79,617.96 100.78,617.97 100.76,618.00 100.74,618.02 100.73,618.05 100.73,618.06 100.75,618.08 100.78,618.09 100.81,618.10 100.84,618.11 100.88,618.13 100.90,618.15 100.93,618.17 100.95,618.19 100.98,618.20 100.99,618.19 101.01,618.17 101.02,618.14 101.03,618.10 101.04,618.07 101.06,618.04 101.08,618.01 101.10,617.98 101.12,617.96 101.12,617.94 101.11,617.92 101.08,617.91 101.05,617.90 101.02,617.89 100.98,617.88 100.95,617.86 100.93,617.84 100.90,617.81 100.88,617.80 100.86,617.80 100.84,617.82 100.83,617.85 100.82,617.88 100.81,617.92 100.79,617.95 100.77,617.98 100.75,618.01 100.72,618.04 100.70,618.06 100.69,618.09 100.68,618.11 100.69,618.14 100.70,618.16 100.73,618.17 100.75,618.19 100.79,618.20 100.83,618.22 100.86,618.23 100.89,618.26 100.92,618.28 100.95,618.31 100.97,618.33 101.00,618.34 101.02,618.34 101.04,618.33 101.06,618.31 101.08,618.29 101.10,618.26 101.11,618.22 101.12,618.20 101.12,618.20 101.12,618.20 101.12,618.20 101.12,618.20 101.12,618.20 101.12,618.19 101.12,618.19 101.12,618.19 101.12,618.19 101.12,618.19 101.12,618.19 101.12,618.19 101.12,618.19 101.12,618.19 101.12,618.19 101.12,618.19 101.13,618.19 101.13,618.19 101.13,618.18 101.13,618.18 101.13,618.18 101.13,618.18 101.13,618.18 101.13,618.18 101.13,618.18 101.13,618.18 101.13,618.18 101.13,618.18 101.13,618.18 101.13,618.18 101.13,618.17 101.13,618.17 101.13,618.17 101.13,618.17 101.13,618.17 101.13,618.17 101.13,618.17 101.13,618.17 101.13,618.17 101.13,618.17 101.13,618.17 101.13,618.17 101.14,618.17 101.14,618.16 101.14,618.16 101.14,618.16 101.14,618.16 101.14,618.16 101.14,618.16 101.14,618.16 101.14,618.16 101.14,618.16 101.14,618.15 101.16,618.12 101.18,618.10 101.21,618.07 101.22,618.04 101.22,618.02 101.20,618.01 101.18,618.00 101.15,617.99 101.11,617.98 101.08,617.96 101.05,617.94 101.03,617.92 101.00,617.90 100.98,617.89 100.96,617.89 100.94,617.91 100.93,617.94 100.92,617.97 100.91,618.01 100.90,618.04 100.87,618.06 100.85,618.09 100.83,618.12 100.83,618.14 100.84,618.15 100.86,618.17 100.89,618.18 100.93,618.19 100.96,618.20 100.99,618.22 101.01,618.24 101.04,618.27 101.06,618.28 101.08,618.28 101.10,618.26 101.11,618.24 101.12,618.21 101.13,618.17 101.15,618.14 101.17,618.10 101.19,618.08 101.22,618.05 101.25,618.02 101.27,617.99 101.28,617.96 101.28,617.94 101.28,617.91 101.26,617.89 101.25,617.87 101.22,617.86 101.19,617.84 101.16,617.86 101.12,617.84 101.09,617.82 101.06,617.79 101.03,617.77 101.00,617.74 100.97,617.72 100.95,617.71 100.92,617.71 100.90,617.71 100.88,617.72 100.86,617.74 100.86,617.74 100.86,617.74 100.86,617.74 100.86,617.74 100.85,617.74 100.85,617.74 100.85,617.74 100.85,617.74 100.85,617.74 100.85,617.74 100.85,617.74 100.85,617.74 100.85,617.74 100.85,617.74 100.85,617.73 100.85,617.73 100.85,617.73 100.85,617.73 100.85,617.73 100.85,617.73 100.85,617.73 100.84,617.73 100.84,617.73 100.84,617.73 100.84,617.73 100.84,617.73 100.84,617.74 100.83,617.78 100.82,617.82 100.80,617.84 100.78,617.87 100.75,617.90 100.74,617.92 100.74,617.94 100.75,617.96 100.77,617.97 100.81,617.98 100.84,617.99 100.88,618.00 100.90,618.02 100.93,618.04 100.96,618.07 100.98,618.08 101.00,618.07 101.01,618.06 101.02,618.03 101.03,618.00 101.04,617.96 101.06,617.93 101.08,617.90 101.10,617.88 101.12,617.85 101.13,617.83 101.12,617.81 101.10,617.80 101.07,617.79 101.04,617.78 101.00,617.77 100.97,617.75 100.95,617.73 100.92,617.70 100.90,617.69 100.88,617.69 100.86,617.70 100.84,617.72 100.83,617.74 100.81,617.77 100.79,617.80 100.78,617.84 100.76,617.87 100.73,617.90 100.71,617.93 100.68,617.96 100.65,617.99 100.64,618.02 100.63,618.04 100.67,618.01 100.68,618.03 100.69,618.06 100.71,618.07 100.74,618.09 100.77,618.11 100.80,618.13 100.84,618.14 100.87,618.16 100.90,618.19 100.93,618.22 100.96,618.24 100.99,618.26 101.01,618.27 101.01,618.27 101.01,618.27 101.00,618.27 101.00,618.27 101.00,618.27 101.00,618.27 101.00,618.27 101.00,618.27 101.00,618.27 101.00,618.27 101.00,618.27 101.00,618.27 101.00,618.27 100.99,618.27 100.99,618.27 100.99,618.27 100.99,618.27 100.99,618.27 100.99,618.27 100.99,618.27 100.99,618.27 100.99,618.27 100.99,618.27 100.99,618.27 100.98,618.27 100.98,618.27 100.98,618.27 100.98,618.27 100.98,618.27 100.98,618.27 100.98,618.27 100.98,618.27 100.98,618.27 100.98,618.27 100.97,618.27 100.97,618.27 100.97,618.27 100.97,618.27 100.97,618.27 100.97,618.27 100.97,618.27 100.97,618.27 100.97,618.27 100.97,618.27 100.97,618.27 100.96,618.27 100.96,618.27 100.96,618.27 100.96,618.27 100.96,618.27 100.96,618.27 100.96,618.27 100.97,618.27 100.98,618.26 101.00,618.24 101.01,618.22 101.02,618.18 101.03,618.14 101.04,618.11 101.07,618.09 101.09,618.06 101.11,618.04 101.11,618.02 101.10,618.00 101.08,617.99 101.05,617.98 101.01,617.97 100.98,617.95 100.95,617.94 100.93,617.91 100.90,617.89 100.88,617.88 100.86,617.88 100.84,617.89 100.83,617.92 100.82,617.95 100.81,617.98 100.79,618.02 100.77,618.04 100.75,618.07 100.73,618.10 100.72,618.12 100.73,618.14 100.74,618.15 100.77,618.16 100.80,618.17 100.84,618.18 100.87,618.20 100.89,618.22 100.92,618.25 100.95,618.27 100.98,618.28 101.00,618.28 101.03,618.28 101.05,618.27 101.07,618.25 101.09,618.23 101.11,618.21 101.13,618.18 101.14,618.14 101.16,618.11 101.18,618.08 101.21,618.05 101.24,618.02 101.27,617.99 101.28,617.96 101.30,617.93 101.30,617.91 101.30,617.88 101.29,617.86 101.28,617.84 101.26,617.82 101.24,617.80 101.23,617.79" fill="none" stroke="#1f77b4" stroke-width="2" opacity="0.90"/>

  <circle cx="112.32" cy="460.30" r="5" fill="#2ca02c"/>
  <circle cx="95.48" cy="465.69" r="5" fill="#ff7f0e"/>
  <path d="M 107.32 455.30 L 117.32 465.30 M 107.32 465.30 L 117.32 455.30" stroke="#2ca02c" stroke-width="2"/>
  <path d="M 96.23 612.79 L 106.23 622.79 M 96.23 622.79 L 106.23 612.79" stroke="#ff7f0e" stroke-width="2"/>

  <rect x="840" y="50" width="300" height="86" fill="white" stroke="#ddd"/>
  <line x1="860" y1="70" x2="900" y2="70" stroke="#d62728" stroke-width="3"/>
  <text x="910" y="75" font-family="monospace" font-size="14" fill="#111">reference (json)</text>
  <line x1="860" y1="92" x2="900" y2="92" stroke="#1f77b4" stroke-width="3"/>
  <text x="910" y="97" font-family="monospace" font-size="14" fill="#111">replay (odom)</text>
  <circle cx="880" cy="116" r="5" fill="#2ca02c"/>
  <text x="910" y="121" font-family="monospace" font-size="14" fill="#111">start</text>
  <circle cx="880" cy="136" r="5" fill="#ff7f0e"/>
  <text x="910" y="141" font-family="monospace" font-size="14" fill="#111">end</text>
</svg>
