<?xml version="1.0" encoding="UTF-8"?>
<svg xmlns="http://www.w3.org/2000/svg" width="1200" height="800" viewBox="0 0 1200 800">
  <rect x="0" y="0" width="1200" height="800" fill="white"/>
  <text x="60" y="40" font-family="monospace" font-size="16" fill="#111">Reference vs replay | ref_close=0.60m replay_close=12.82m mean=0.03m p95=0.10m max=0.14m cover=80.9% | 2025-10-29-16-05-00.bag /liorl/mapping/path</text>
  <rect x="60" y="60" width="1080" height="680" fill="none" stroke="#aaa" stroke-width="1"/>

  <polyline points="112.55,460.23 142.96,459.01 172.75,458.87 203.85,459.77 234.94,457.22 266.22,458.09 297.86,458.54 327.89,459.78 357.81,464.29 366.89,476.63 369.46,504.01 366.90,525.35 372.77,544.87 383.38,573.30 391.52,604.69 400.19,634.46 409.31,663.31 418.23,680.70 429.43,685.45 469.46,686.23 499.50,690.93 535.02,687.40 565.80,689.22 595.25,689.65 625.14,692.36 657.52,693.64 688.51,695.07 718.88,696.70 748.77,701.89 778.72,703.24 810.04,704.47 840.02,706.17 871.41,706.16 903.21,707.79 933.19,713.15 965.36,715.96 995.79,719.06 1028.17,720.48 1059.03,722.90 1090.94,725.25 1114.81,722.99 1125.25,712.19 1122.06,698.98 1118.02,669.28 1109.80,650.81 1098.51,630.75 1089.42,609.69 1096.28,598.99 1099.98,566.53 1095.63,553.95 1087.69,525.91 1067.97,510.38 1046.88,504.85 1014.86,498.11 984.97,493.21 954.98,490.70 922.72,487.10 890.94,485.44 858.06,485.15 826.42,482.90 794.74,481.75 760.81,480.55 729.60,479.70 697.77,475.87 668.30,475.30 637.93,476.31 604.90,475.24 574.19,474.56 540.78,472.32 510.50,470.29 477.35,468.26 443.65,465.97 411.07,467.41 389.46,482.91 380.68,493.11 380.98,507.05 381.73,544.73 388.12,562.17 392.82,575.65 395.96,605.75 403.53,636.57 405.47,667.24 399.34,684.74 386.25,691.18 371.51,691.47 331.68,689.32 300.69,690.41 271.12,688.69 241.97,683.22 211.37,677.69 178.48,673.34 149.45,667.71 131.26,660.07 118.66,642.68 113.05,625.23 109.26,581.09 102.30,556.49 92.66,528.26 82.10,498.75 74.75,468.30 83.89,459.03 95.64,465.64" fill="none" stroke="#d62728" stroke-width="2" opacity="0.95"/>
  <polyline points="112.55,460.23 112.55,460.23 112.55,460.23 112.55,460.23 112.55,460.23 112.55,460.23 112.55,460.23 112.55,460.23 112.55,460.23 112.55,460.23 112.55,460.23 112.55,460.23 112.55,460.23 112.55,460.23 112.55,460.23 112.55,460.23 112.55,460.23 112.55,460.24 112.55,460.24 112.55,460.24 112.55,460.24 112.55,460.24 112.55,460.24 112.56,460.24 112.56,460.24 112.56,460.24 112.56,460.24 112.56,460.24 112.56,460.24 112.56,460.24 112.56,460.24 112.56,460.24 112.56,460.24 112.56,460.24 112.56,460.24 112.56,460.24 112.56,460.24 112.56,460.24 112.56,460.24 112.56,460.24 112.56,460.24 112.56,460.24 112.56,460.24 112.70,460.23 112.94,460.21 113.19,460.20 113.44,460.19 113.80,460.18 114.20,460.17 114.60,460.16 115.00,460.16 115.51,460.17 116.04,460.18 116.57,460.19 117.10,460.20 117.74,460.22 118.39,460.23 119.04,460.25 119.69,460.27 120.35,460.29 121.01,460.31 121.68,460.34 122.34,460.36 123.00,460.39 123.66,460.41 124.32,460.43 124.99,460.44 125.65,460.45 126.31,460.45 126.97,460.45 127.63,460.44 128.30,460.42 128.96,460.40 129.62,460.37 130.28,460.33 130.92,460.29 131.57,460.25 132.22,460.20 132.86,460.15 133.48,460.10 134.11,460.05 134.73,459.99 135.33,459.93 135.90,459.88 136.46,459.82 137.03,459.77 137.59,459.71 138.16,459.65 138.72,459.59 139.29,459.52 139.89,459.45 140.53,459.38 141.18,459.31 141.82,459.24 142.47,459.17 143.13,459.09 143.79,459.03 144.45,458.96 145.11,458.91 145.77,458.85 146.43,458.81 147.09,458.77 147.75,458.74 148.41,458.71 149.08,458.69 149.74,458.67 150.40,458.66 151.06,458.65 151.72,458.64 152.39,458.63 153.05,458.63 153.71,458.63 154.37,458.63 155.04,458.63 155.70,458.63 156.36,458.64 157.02,458.64 157.68,458.64 158.35,458.65 159.01,458.65 159.67,458.66 160.33,458.66 160.99,458.66 161.66,458.67 162.32,458.67 162.98,458.68 163.64,458.69 164.31,458.69 164.97,458.70 165.63,458.70 166.29,458.71 166.95,458.71 167.62,458.72 168.28,458.73 168.94,458.74 169.60,458.76 170.26,458.77 170.91,458.77 171.57,458.78 172.22,458.78 172.87,458.77 173.53,458.76 174.20,458.75 174.86,458.74 175.52,458.73 176.18,458.72 176.84,458.70 177.50,458.69 178.17,458.68 178.83,458.66 179.49,458.64 180.15,458.63 180.82,458.61 181.48,458.60 182.14,458.60 182.80,458.60 183.46,458.60 184.13,458.61 184.79,458.63 185.45,458.65 186.11,458.68 186.77,458.71 187.43,458.74 188.09,458.79 188.75,458.83 189.41,458.87 190.07,458.91 190.73,458.96 191.38,459.01 191.99,459.06 192.60,459.10 193.21,459.15 193.83,459.21 194.48,459.27 195.13,459.32 195.78,459.38 196.40,459.44 196.99,459.49 197.57,459.54 198.16,459.59 198.75,459.63 199.33,459.68 199.92,459.72 200.51,459.76 201.13,459.80 201.79,459.85 202.46,459.89 203.12,459.92 203.78,459.96 204.44,460.00 205.10,460.03 205.76,460.06 206.42,460.10 207.07,460.13 207.73,460.16 208.39,460.18 209.04,460.20 209.69,460.21 210.35,460.22 211.00,460.22 211.65,460.21 212.29,460.20 212.94,460.18 213.59,460.15 214.23,460.11 214.87,460.07 215.52,460.02 216.16,459.97 216.80,459.90 217.44,459.83 218.08,459.76 218.72,459.68 219.36,459.60 220.00,459.51 220.63,459.42 221.27,459.33 221.89,459.23 222.51,459.13 223.14,459.02 223.76,458.91 224.41,458.80 225.06,458.68 225.71,458.57 226.36,458.45 227.01,458.33 227.66,458.21 228.31,458.09 228.93,457.97 229.51,457.87 230.10,457.77 230.68,457.67 231.29,457.57 231.95,457.47 232.60,457.37 233.25,457.28 233.91,457.19 234.57,457.11 235.22,457.03 235.88,456.95 236.54,456.88 237.20,456.82 237.86,456.76 238.52,456.71 239.18,456.66 239.84,456.62 240.50,456.59 241.17,456.57 241.83,456.55 242.49,456.54 243.15,456.53 243.82,456.53 244.48,456.54 245.14,456.55 245.80,456.57 246.46,456.59 247.12,456.62 247.79,456.65 248.45,456.69 249.11,456.72 249.77,456.76 250.43,456.79 251.09,456.83 251.74,456.87 252.40,456.91 253.06,456.95 253.72,456.99 254.38,457.03 255.04,457.08 255.70,457.12 256.36,457.17 257.02,457.22 257.67,457.28 258.33,457.33 258.99,457.39 259.65,457.45 260.31,457.51 260.97,457.57 261.62,457.63 262.28,457.69 262.94,457.75 263.61,457.81 264.27,457.86 264.93,457.91 265.59,457.97 266.25,458.01 266.91,458.05 267.57,458.08 268.24,458.11 268.90,458.14 269.56,458.16 270.22,458.17 270.88,458.19 271.55,458.20 272.21,458.22 272.87,458.22 273.53,458.23 274.19,458.23 274.86,458.24 275.52,458.24 276.18,458.25 276.84,458.25 277.51,458.26 278.17,458.26 278.83,458.26 279.49,458.27 280.15,458.27 280.82,458.27 281.48,458.28 282.14,458.28 282.80,458.29 283.46,458.30 284.13,458.30 284.79,458.31 285.45,458.32 286.11,458.32 286.78,458.33 287.44,458.34 288.09,458.34 288.73,458.35 289.37,458.35 290.01,458.36 290.64,458.36 291.23,458.37 291.82,458.37 292.41,458.38 293.00,458.38 293.59,458.39 294.18,458.39 294.77,458.40 295.38,458.41 296.03,458.42 296.68,458.44 297.33,458.45 297.98,458.46 298.63,458.46 299.28,458.47 299.94,458.46 300.59,458.46 301.26,458.45 301.92,458.45 302.58,458.44 303.24,458.43 303.90,458.42 304.57,458.41 305.23,458.40 305.89,458.38 306.55,458.38 307.21,458.37 307.88,458.37 308.54,458.38 309.20,458.39 309.86,458.40 310.53,458.42 311.19,458.44 311.85,458.47 312.51,458.50 313.17,458.53 313.83,458.56 314.49,458.59 315.15,458.62 315.81,458.65 316.47,458.69 317.13,458.72 317.79,458.76 318.44,458.80 319.09,458.84 319.73,458.89 320.37,458.93 321.02,458.98 321.66,459.03 322.30,459.09 322.94,459.14 323.59,459.20 324.25,459.26 324.90,459.32 325.56,459.38 326.22,459.44 326.88,459.50 327.54,459.55 328.20,459.61 328.86,459.65 329.52,459.69 330.18,459.73 330.84,459.77 331.50,459.82 332.16,459.86 332.82,459.90 333.48,459.94 334.14,459.98 334.80,460.01 335.46,460.04 336.12,460.08 336.78,460.10 337.44,460.12 338.10,460.15 338.76,460.17 339.42,460.20 340.08,460.23 340.74,460.26 341.40,460.29 342.06,460.33 342.72,460.38 343.38,460.43 344.04,460.48 344.69,460.55 345.34,460.62 345.99,460.69 346.63,460.77 347.27,460.86 347.91,460.95 348.54,461.05 349.17,461.16 349.74,461.27 350.31,461.38 350.88,461.51 351.45,461.64 352.01,461.77 352.58,461.91 353.14,462.06 353.68,462.22 354.19,462.37 354.70,462.54 355.21,462.70 355.69,462.87 356.13,463.03 356.56,463.20 356.99,463.37 357.39,463.54 357.74,463.69 358.09,463.85 358.43,464.01 358.79,464.19 359.16,464.38 359.54,464.58 359.90,464.78 360.23,464.97 360.52,465.14 360.81,465.31 361.10,465.49 361.34,465.65 361.54,465.79 361.74,465.93 361.94,466.08 362.09,466.19 362.22,466.29 362.35,466.39 362.48,466.49 362.63,466.61 362.78,466.74 362.93,466.87 363.08,467.01 363.19,467.10 363.28,467.19 363.38,467.28 363.48,467.37 363.59,467.49 363.71,467.61 363.83,467.74 363.94,467.86 364.06,467.99 364.17,468.12 364.28,468.25 364.40,468.39 364.65,468.72 364.89,469.06 365.13,469.39 365.38,469.75 365.68,470.20 365.97,470.66 366.26,471.12 366.55,471.60 366.85,472.13 367.15,472.65 367.44,473.18 367.72,473.72 367.99,474.26 368.26,474.80 368.52,475.35 368.76,475.90 369.00,476.44 369.22,476.98 369.44,477.52 369.65,478.06 369.84,478.61 370.03,479.15 370.22,479.70 370.39,480.24 370.54,480.77 370.70,481.30 370.84,481.83 370.98,482.33 371.10,482.81 371.22,483.30 371.33,483.78 371.43,484.26 371.53,484.74 371.62,485.21 371.70,485.69 371.78,486.12 371.84,486.53 371.90,486.94 371.95,487.35 371.99,487.75 372.03,488.15 372.07,488.55 372.09,488.95 372.11,489.32 372.13,489.69 372.14,490.06 372.14,490.43 372.14,490.79 372.13,491.15 372.12,491.51 372.10,491.87 372.08,492.28 372.04,492.69 372.00,493.09 371.96,493.50 371.91,493.90 371.86,494.29 371.80,494.69 371.74,495.08 371.67,495.47 371.60,495.85 371.53,496.24 371.45,496.62 371.37,497.00 371.29,497.39 371.20,497.77 371.10,498.22 370.97,498.77 370.84,499.31 370.70,499.86 370.55,500.45 370.37,501.08 370.20,501.72 370.03,502.36 369.85,502.99 369.67,503.62 369.49,504.26 369.31,504.89 369.13,505.53 368.95,506.16 368.78,506.79 368.60,507.43 368.43,508.06 368.26,508.70 368.09,509.34 367.93,509.98 367.77,510.62 367.61,511.26 367.47,511.90 367.32,512.54 367.19,513.19 367.06,513.84 366.93,514.48 366.82,515.13 366.71,515.73 366.61,516.33 366.51,516.93 366.42,517.53 366.34,518.13 366.26,518.74 366.20,519.34 366.14,519.95 366.09,520.58 366.04,521.21 366.01,521.84 365.99,522.46 365.97,523.05 365.97,523.65 365.97,524.24 365.98,524.83 366.00,525.41 366.02,525.98 366.06,526.56 366.10,527.10 366.14,527.57 366.19,528.04 366.25,528.51 366.31,528.97 366.37,529.41 366.44,529.84 366.52,530.28 366.60,530.70 366.68,531.10 366.77,531.49 366.86,531.89 366.96,532.29 367.06,532.69 367.17,533.08 367.29,533.48 367.41,533.87 367.54,534.27 367.68,534.67 367.82,535.06 367.96,535.45 368.10,535.83 368.25,536.20 368.40,536.58 368.60,537.04 368.81,537.52 369.02,537.99 369.23,538.47 369.45,538.94 369.68,539.41 369.91,539.87 370.14,540.34 370.29,540.63 370.42,540.89 370.55,541.15 370.69,541.42 370.88,541.79 371.07,542.17 371.26,542.55 371.45,542.94 371.70,543.43 371.94,543.93 372.18,544.43 372.41,544.94 372.68,545.52 372.94,546.10 373.19,546.68 373.43,547.27 373.68,547.88 373.92,548.49 374.16,549.11 374.39,549.72 374.62,550.34 374.84,550.96 375.07,551.58 375.29,552.20 375.52,552.82 375.74,553.43 375.97,554.05 376.20,554.67 376.43,555.28 376.67,555.90 376.90,556.51 377.14,557.13 377.37,557.74 377.61,558.35 377.85,558.97 378.09,559.58 378.33,560.19 378.58,560.80 378.82,561.41 379.06,562.02 379.31,562.63 379.56,563.24 379.81,563.85 380.05,564.44 380.29,565.03 380.53,565.62 380.77,566.21 381.01,566.81 381.25,567.40 381.48,567.99 381.72,568.58 381.91,569.07 382.09,569.55 382.27,570.04 382.45,570.53 382.66,571.12 382.86,571.71 383.06,572.31 383.25,572.91 383.44,573.53 383.62,574.14 383.79,574.76 383.95,575.39 384.11,576.02 384.27,576.66 384.42,577.31 384.57,577.95 384.72,578.59 384.86,579.23 385.01,579.87 385.15,580.52 385.30,581.16 385.44,581.80 385.59,582.45 385.74,583.09 385.90,583.73 386.05,584.37 386.21,585.01 386.37,585.65 386.53,586.29 386.70,586.92 386.86,587.56 387.03,588.20 387.19,588.84 387.35,589.48 387.52,590.11 387.68,590.75 387.84,591.39 388.01,592.03 388.17,592.67 388.34,593.31 388.51,593.94 388.68,594.58 388.84,595.22 389.01,595.85 389.18,596.49 389.35,597.13 389.53,597.76 389.69,598.36 389.84,598.96 390.00,599.55 390.15,600.14 390.31,600.78 390.47,601.42 390.62,602.06 390.77,602.70 390.91,603.35 391.05,603.99 391.18,604.64 391.31,605.29 391.43,605.93 391.55,606.58 391.66,607.23 391.77,607.88 391.88,608.54 391.98,609.19 392.09,609.84 392.20,610.49 392.31,611.14 392.43,611.79 392.54,612.44 392.66,613.09 392.79,613.73 392.92,614.38 393.06,615.03 393.20,615.67 393.35,616.31 393.51,616.95 393.67,617.59 393.85,618.22 394.03,618.86 394.21,619.49 394.41,620.12 394.61,620.74 394.82,621.35 395.03,621.97 395.25,622.58 395.48,623.19 395.71,623.80 395.95,624.41 396.19,625.02 396.42,625.60 396.66,626.18 396.90,626.76 397.14,627.34 397.39,627.92 397.63,628.49 397.88,629.07 398.14,629.64 398.30,630.01 398.45,630.36 398.60,630.72 398.74,631.07 398.94,631.54 399.13,632.02 399.32,632.50 399.51,632.98 399.73,633.58 399.95,634.18 400.16,634.78 400.36,635.39 400.57,636.01 400.76,636.64 400.95,637.27 401.13,637.90 401.31,638.54 401.48,639.17 401.66,639.81 401.82,640.45 401.99,641.08 402.16,641.72 402.33,642.36 402.50,642.99 402.67,643.63 402.84,644.27 403.02,644.90 403.20,645.54 403.37,646.17 403.56,646.80 403.74,647.44 403.92,648.07 404.11,648.70 404.30,649.33 404.48,649.96 404.67,650.59 404.86,651.22 405.06,651.85 405.26,652.48 405.46,653.11 405.66,653.73 405.86,654.36 406.06,654.99 406.25,655.58 406.44,656.17 406.64,656.76 406.83,657.35 407.03,657.93 407.23,658.52 407.42,659.10 407.63,659.69 407.84,660.31 408.05,660.93 408.27,661.56 408.48,662.18 408.69,662.80 408.90,663.42 409.11,664.05 409.33,664.67 409.54,665.29 409.76,665.91 409.99,666.53 410.21,667.15 410.45,667.76 410.68,668.38 410.93,668.99 411.18,669.60 411.44,670.20 411.70,670.80 411.97,671.39 415.98,678.42 418.60,681.71 416.19,679.73 419.47,681.28 419.78,680.89" fill="none" stroke="#1f77b4" stroke-width="2" opacity="0.90"/>

  <circle cx="112.55" cy="460.23" r="5" fill="#2ca02c"/>
  <circle cx="95.64" cy="465.64" r="5" fill="#ff7f0e"/>
  <path d="M 107.55 455.23 L 117.55 465.23 M 107.55 465.23 L 117.55 455.23" stroke="#2ca02c" stroke-width="2"/>
  <path d="M 414.78 675.89 L 424.78 685.89 M 414.78 685.89 L 424.78 675.89" stroke="#ff7f0e" stroke-width="2"/>

  <rect x="840" y="50" width="300" height="86" fill="white" stroke="#ddd"/>
  <line x1="860" y1="70" x2="900" y2="70" stroke="#d62728" stroke-width="3"/>
  <text x="910" y="75" font-family="monospace" font-size="14" fill="#111">reference (json)</text>
  <line x1="860" y1="92" x2="900" y2="92" stroke="#1f77b4" stroke-width="3"/>
  <text x="910" y="97" font-family="monospace" font-size="14" fill="#111">replay (odom)</text>
  <circle cx="880" cy="116" r="5" fill="#2ca02c"/>
  <text x="910" y="121" font-family="monospace" font-size="14" fill="#111">start</text>
  <circle cx="880" cy="136" r="5" fill="#ff7f0e"/>
  <text x="910" y="141" font-family="monospace" font-size="14" fill="#111">end</text>
</svg>
